<svg width="23" height="16" viewBox="0 0 23 16" fill="none" xmlns="http://www.w3.org/2000/svg">
<g clip-path="url(#clip0_17709_5621)">
<path fill-rule="evenodd" clip-rule="evenodd" d="M16.9798 15.9052C16.9798 15.9052 16.9381 15.8549 16.8665 15.7686C16.6699 15.5311 16.2488 15.0199 15.8576 14.5264C15.8223 14.4818 15.787 14.4372 15.7519 14.3924C18.1894 13.7015 19.1195 12.1703 19.1195 12.1703C18.4521 12.6115 17.8131 12.9383 17.2275 13.1756C17.1454 13.2089 17.0628 13.241 16.9798 13.2719C16.0497 13.6642 15.1565 13.9255 14.282 14.075C12.4958 14.4111 10.8585 14.3178 9.46304 14.0563C8.4024 13.8508 7.4907 13.5521 6.72794 13.2534C6.29995 13.0853 5.83481 12.8799 5.36954 12.6184C5.34339 12.6009 5.31719 12.5875 5.291 12.5743L5.28581 12.5717L5.28574 12.5716L5.28568 12.5716C5.25786 12.5576 5.23001 12.5436 5.20216 12.525C5.16502 12.5064 5.14632 12.4877 5.12776 12.4691C4.87658 12.329 4.70912 12.2205 4.6411 12.175C4.61842 12.1598 4.60679 12.1516 4.60679 12.1516C4.60679 12.1516 4.66261 12.245 4.78325 12.3961C5.14521 12.8496 6.09065 13.8229 7.86287 14.3551C7.30474 15.0648 6.61627 15.905 6.61627 15.905C2.50419 15.7742 0.941406 13.0666 0.941406 13.0666C0.941406 7.05362 3.62068 2.17966 3.62068 2.17966C5.63013 0.667052 7.56632 0.320432 8.40883 0.241651C8.68965 0.215391 8.84897 0.218907 8.84897 0.218907L9.03506 0.443054C5.68599 1.41386 4.14165 2.88928 4.14165 2.88928C4.14165 2.88928 4.50138 2.69238 5.11354 2.40618C5.15435 2.38711 5.19628 2.36762 5.2393 2.34778C6.73248 1.68947 7.99544 1.38839 8.80832 1.25536C9.07929 1.21101 9.30024 1.18533 9.46304 1.17132C9.47639 1.16908 9.48945 1.16683 9.50233 1.16462L9.50316 1.16449H9.50321C9.59764 1.14828 9.68135 1.13392 9.77936 1.13392C11.0262 0.970898 12.288 0.958385 13.5379 1.09664C15.3053 1.30204 17.2032 1.82491 19.1382 2.88928C19.1382 2.88928 17.8463 1.65839 15.0786 0.7044C14.8885 0.638926 14.6974 0.576695 14.5053 0.517735L14.7657 0.219042C14.7657 0.219042 14.7757 0.218817 14.795 0.218892C15.0656 0.220029 17.172 0.280061 19.4937 1.82541C19.6639 1.93863 19.8308 2.05682 19.9941 2.17981C19.9941 2.17981 22.3489 6.46345 22.6434 11.9535C22.6629 12.3195 22.6735 12.6908 22.6735 13.0667C22.6735 13.0667 21.0918 15.7743 16.9798 15.905V15.9052ZM8.32799 7.18434C7.33377 7.18434 6.53584 8.00495 6.43997 9.04607C6.43352 9.11621 6.4303 9.18662 6.43031 9.25706C6.43031 10.3962 7.28605 11.3299 8.32799 11.3299C9.38863 11.3299 10.2258 10.3962 10.2258 9.25706C10.2445 8.11799 9.38863 7.18434 8.32813 7.18434H8.32799ZM15.1193 7.18434C14.125 7.18434 13.3269 8.00495 13.2311 9.04607C13.2246 9.11621 13.2214 9.18662 13.2214 9.25706C13.2214 10.3962 14.0774 11.3299 15.1193 11.3299C16.1798 11.3299 17.017 10.3962 17.017 9.25706C17.017 8.11799 16.1798 7.18434 15.1193 7.18434Z" fill="white"/>
</g>
<defs>
<clipPath id="clip0_17709_5621">
<rect width="21.7321" height="15.6954" fill="white" transform="translate(0.941406 0.210938)"/>
</clipPath>
</defs>
</svg>
