<svg width="15" height="16" viewBox="0 0 15 16" fill="none" xmlns="http://www.w3.org/2000/svg">
<g clip-path="url(#clip0_17735_9500)">
<path d="M7.23846 15.2992C11.2189 15.2992 14.4457 11.9828 14.4457 7.89179C14.4457 3.80079 11.2189 0.484375 7.23846 0.484375C3.25803 0.484375 0.03125 3.80079 0.03125 7.89179C0.03125 11.9828 3.25803 15.2992 7.23846 15.2992Z" fill="white"/>
<path d="M9.58459 2.75781H7.98801C7.04055 2.75781 5.98671 3.16737 5.98671 4.5789C5.99133 5.07074 5.98671 5.54177 5.98671 6.07188H4.89062V7.86452H6.02063V13.0252H8.09706V7.83047H9.46758L9.59159 6.06685H8.06128C8.06128 6.06685 8.06471 5.28232 8.06128 5.05449C8.06128 4.49668 8.62602 4.52862 8.65998 4.52862C8.92872 4.52862 9.45124 4.52943 9.58537 4.52862V2.75781H9.58459Z" fill="#756560"/>
</g>
<defs>
<clipPath id="clip0_17735_9500">
<rect width="14.4144" height="14.8148" fill="white" transform="translate(0.03125 0.484375)"/>
</clipPath>
</defs>
</svg>
