<svg width="145" height="124" viewBox="0 0 145 124" fill="none" xmlns="http://www.w3.org/2000/svg">
<path d="M47.7918 122.636C45.6847 120.89 43.6077 119.175 41.2598 117.218C40.8383 119.175 40.4771 120.77 40.0256 122.787C38.5807 122.606 37.1057 122.426 35.7812 122.275C36.3532 118.874 36.8649 115.803 37.4368 112.552C39.5741 111.198 41.4403 111.288 43.0357 113.997C44.0893 115.773 45.6847 117.278 47.1597 119.024C49.5076 116.857 51.4643 115.532 52.7888 113.726C54.3842 111.529 55.9494 111.318 58.2371 112.612C58.4479 115.623 58.6887 118.723 58.9295 122.034C57.7555 122.305 56.5514 122.576 55.227 122.847C54.8657 120.86 54.5648 119.175 54.2035 117.128C51.9459 119.054 49.9592 120.77 47.7918 122.636Z" fill="white"/>
<path d="M82.3236 117.82C81.6313 122.756 81.6313 122.756 78.1094 122.486C78.1094 119.295 78.1094 116.104 78.1094 112.823C82.9257 110.505 84.6114 115.773 88.2236 116.977C88.4945 115.502 88.7955 113.967 89.1567 112.07C90.5715 112.582 91.7154 112.973 92.8292 113.395C92.5583 116.014 92.3174 118.452 92.0465 120.89C91.8358 122.726 90.0297 123.629 88.4945 122.546C86.5379 121.131 84.6114 119.566 82.3236 117.82Z" fill="white"/>
<path d="M60.5859 121.646C62.5125 117.823 66.4257 115.686 65.7032 110.99C66.4859 110.689 67.4793 110.328 68.593 109.906C71.3624 113.729 74.1016 117.492 76.9011 121.375C75.697 121.887 74.6134 122.308 73.5899 122.76C71.3323 120.653 66.9073 120.562 64.1982 122.037C63.3553 122.489 61.9104 121.827 60.5859 121.646Z" fill="white"/>
<path d="M101.563 119.207C99.3652 120.682 98.131 124.837 94.88 120.983C96.2346 119.81 97.6494 118.575 99.7264 116.709C97.6193 115.385 96.0841 114.391 94.3984 113.338C95.8433 111.742 96.5958 110.899 97.6795 109.695C98.9739 111.321 100.088 112.736 101.232 114.18C103.068 112.766 104.513 111.652 106.078 110.448C106.891 111.14 107.643 111.772 108.727 112.645C107.131 113.94 105.687 115.144 103.971 116.559C105.325 117.853 106.62 119.087 108.095 120.472C107.252 121.284 106.469 122.007 105.596 122.85C104.212 121.586 102.947 120.442 101.563 119.207Z" fill="white"/>
<path d="M0.0301312 14.9857C0.632167 13.6612 1.68573 13.3903 3.04031 13.4505C7.79639 13.6311 12.402 14.474 16.6764 16.551C20.3489 18.3571 24.1717 19.1397 28.2355 19.2902C32.2691 19.4408 36.1522 18.9892 39.7945 17.2433C46.0858 14.2632 52.6781 13.2097 59.6015 13.4505C64.2071 13.6311 68.6321 14.2331 72.9065 16.0091C78.2044 18.2367 83.6529 19.9224 89.4926 19.23C91.4793 18.9892 93.5564 18.5678 95.3625 17.725C104.423 13.5408 113.905 12.5173 123.658 14.1127C126.819 14.6245 129.949 15.7382 132.96 16.8821C136.572 18.2367 140.034 20.103 144.127 18.3571C144.127 21.6081 144.127 24.5882 144.127 27.9596C140.455 27.2371 136.873 26.6953 133.381 25.7922C130.401 25.0096 127.541 23.7453 124.591 22.8423C123.267 22.4208 121.852 22.3004 120.467 22.0897C113.905 21.0662 107.674 22.18 101.563 24.6183C92.5931 28.1703 83.382 27.8692 74.1708 25.6417C73.027 25.3708 71.8831 24.8892 70.8295 24.3473C67.4581 22.5713 63.876 21.879 60.1133 21.9994C56.9225 22.0897 53.7016 22.1198 50.5108 22.3606C49.4271 22.4509 48.3435 23.0229 47.2899 23.4443C36.1222 28.0198 24.8641 28.682 13.3652 24.4075C10.1142 23.2035 6.68264 22.4509 3.28114 21.7285C1.59544 21.3673 0.451527 20.7351 0 19.0494C0.0301018 17.7852 0.0301312 16.3704 0.0301312 14.9857Z" fill="white"/>
<path d="M118.956 0.0301036C121.243 0.451529 123.621 0.692341 125.849 1.35458C129.341 2.37804 132.712 3.82293 136.174 4.87649C138.1 5.47853 140.147 5.77954 142.164 6.02036C143.519 6.17087 144.211 6.62239 144.181 8.00708C144.151 10.0841 144.181 12.1611 144.181 14.3285C139.666 14.208 135.391 13.4555 131.267 12.0708C128.107 11.0173 125.006 9.48206 121.725 9.00043C115.524 8.09738 109.353 8.27799 103.333 10.8065C92.0747 15.5024 80.6962 15.2917 69.4984 10.5657C66.9096 9.48206 64.2907 8.84992 61.5515 8.72952C55.3505 8.4285 49.27 8.78972 43.5205 11.5591C39.3063 13.606 34.6405 13.8167 30.0349 13.9973C29.3727 14.0274 28.7405 13.9672 28.0783 14.0274C22.2987 14.4489 17.0008 12.7933 11.7631 10.5356C9.23458 9.45196 6.40497 8.97033 3.66571 8.51881C1.64889 8.18769 0.143845 7.70606 0.0234375 5.38822C0.0234375 3.61221 0.0234375 1.83621 0.0234375 0C1.52853 0 3.03362 0 4.53871 0C4.71932 0.0903054 4.86981 0.210713 5.05042 0.240815C8.99376 0.692342 12.7565 1.86631 16.4289 3.3413C18.9876 4.36476 21.6365 5.32802 24.3457 5.83975C26.6635 6.26117 29.1318 6.14076 31.54 5.96015C33.5568 5.80964 35.5736 5.29791 37.5002 4.72598C41.3231 3.55201 44.9654 1.6556 48.8485 1.05356C58.3005 -0.451527 67.632 0.120407 76.6325 4.06374C82.6829 6.7127 88.9441 7.22443 95.3558 4.54537C99.2389 2.91987 103.423 1.95662 107.517 0.842851C109.082 0.391324 110.768 0.301019 112.393 0.0602049C114.561 0.0301032 116.758 0.0301036 118.956 0.0301036Z" fill="white"/>
<path d="M144.126 45.6578C144.126 48.397 144.126 51.046 144.126 54.1766C141.025 53.6949 137.955 53.4842 135.065 52.7317C131.062 51.7082 127.179 50.2332 123.205 48.969C117.396 47.1327 111.676 47.5241 105.987 49.5108C104.542 50.0225 103.007 50.3837 101.562 50.9256C100.719 51.2567 100.027 52.0393 99.184 52.2501C97.3478 52.7016 95.4514 53.0327 93.5851 53.1531C90.0331 53.3939 86.481 53.3939 82.929 53.6046C78.8051 53.8454 75.0423 52.6715 71.3398 51.1062C66.8848 49.2098 62.2792 47.8552 57.4027 47.8853C53.5797 47.9154 49.6967 48.4572 46.3253 50.2332C37.9269 54.6582 29.0167 54.0863 20.1668 53.0628C16.7352 52.6715 13.4541 50.8353 10.0526 49.8419C7.43377 49.0593 4.72456 48.5475 2.10571 47.8251C1.56388 47.6746 0.781229 47.0424 0.751127 46.5909C0.600619 44.3634 0.690939 42.1359 0.690939 39.7578C4.81488 40.0889 8.84852 40.0889 12.7317 41.5037C16.4643 42.8583 20.2872 44.1226 24.1402 45.1159C29.7993 46.5909 35.308 45.4772 40.5457 43.2195C49.215 39.4869 58.1552 39.216 67.3363 40.6609C71.0388 41.2328 74.2597 43.0389 77.7214 44.2129C84.6749 46.5307 91.6586 46.32 98.1003 43.4001C106.92 39.4267 115.951 39.9384 125.102 40.4803C125.794 40.5104 126.486 40.9619 127.149 41.2328C127.419 41.3532 127.66 41.5639 127.931 41.6542C131.724 42.8583 135.517 44.1527 139.34 45.2363C140.815 45.6578 142.41 45.5374 144.126 45.6578Z" fill="white"/>
<path d="M144.183 40.3944C138.945 40.6051 134.099 39.5516 129.343 37.896C125.941 36.722 122.51 35.6082 119.018 34.8256C114.894 33.8623 110.891 34.9761 106.917 36.1501C102.552 37.4445 98.2779 39.2807 93.8228 39.8225C88.555 40.4847 83.1066 40.4546 77.8388 39.8827C74.2567 39.4914 70.7347 37.8659 67.3332 36.4511C60.4399 33.6215 53.6068 34.0429 46.8942 36.7822C41.5962 38.9495 36.208 40.3643 30.4887 40.6352C26.2443 40.846 22.0903 40.2439 18.0566 39.0398C13.4511 37.6853 8.8756 36.2404 4.30013 34.8557C3.78839 34.7052 3.24655 34.5547 2.70472 34.4644C0.266471 34.0429 0.236384 34.043 0.386893 31.5746C0.416995 30.8823 0.507329 30.1899 0.567533 29.4976C0.778245 27.1496 1.25982 26.5777 3.66796 26.7282C8.18323 26.969 12.6383 27.8721 16.7322 29.8287C22.2107 32.4476 27.8397 33.4108 33.7397 31.9358C36.78 31.1833 39.6999 30.0093 42.71 29.1665C45.4794 28.3838 48.2789 27.5109 51.1385 27.1797C56.4665 26.5476 61.8246 26.2466 67.1225 27.27C69.2899 27.6915 71.3368 28.745 73.474 29.4374C75.7919 30.1899 78.1097 30.8522 80.4576 31.5144C82.1734 31.996 83.8892 32.5078 85.6351 32.7185C89.729 33.2302 93.6422 32.0562 97.2243 30.4608C101.348 28.5945 105.593 27.3604 110.018 27.0593C114.232 26.7583 118.536 26.6379 122.751 27.0292C125.731 27.3001 128.59 28.5644 131.51 29.4374C134.069 30.1899 136.628 30.9726 139.216 31.7251C140.571 32.1465 141.986 32.4777 143.28 33.0195C143.701 33.2001 144.093 33.9225 144.123 34.4343C144.243 36.3608 144.183 38.2873 144.183 40.3944Z" fill="white"/>
</svg>
