<svg width="145" height="124" viewBox="0 0 145 124" fill="none" xmlns="http://www.w3.org/2000/svg">
<path d="M94.5621 112.349C96.037 113.613 97.2412 114.667 98.4452 115.72C97.181 116.804 96.0972 118.249 94.6222 118.941C88.933 121.711 83.7254 120.145 78.9393 116.623C76.8321 115.058 76.8923 113.673 79.15 112.349C84.1469 109.459 89.4448 109.068 95.2845 110.603C94.9233 111.566 94.6524 112.198 94.5621 112.349ZM92.3346 112.198C92.3045 112.078 92.3045 111.958 92.2744 111.867C89.7458 112.168 87.1871 112.319 84.7188 112.8C83.5749 113.011 82.0999 114.155 83.605 115.299C85.3208 116.593 87.5183 117.526 89.6254 117.948C90.5887 118.128 91.883 116.714 93.0269 115.991C91.7325 115.69 90.4382 115.299 89.1137 115.088C88.0601 114.938 86.9764 114.968 85.9229 114.938C85.9229 114.546 85.8928 114.155 85.8928 113.764C88.0601 113.222 90.1973 112.71 92.3346 112.198Z" fill="white"/>
<path d="M10.6953 108.984C14.458 109.315 18.0101 109.466 21.5019 110.008C23.0672 110.249 24.2712 111.453 23.6692 113.5C23.5488 113.921 23.8799 114.613 24.211 115.005C25.8967 117.052 25.686 118.828 23.0973 119.61C20.7794 120.303 18.2509 120.212 15.7825 120.363C14.157 120.453 12.5014 120.393 10.6953 120.393C10.6953 116.54 10.6953 113.108 10.6953 108.984ZM15.03 111.874C15.03 114.132 15.03 115.817 15.03 117.714C16.8361 117.563 18.4014 117.443 20.0871 117.323C18.582 116.359 17.4983 115.667 16.204 114.824C17.6187 114.192 18.4917 113.771 19.3345 113.379C19.3345 113.138 19.3044 112.898 19.3044 112.657C17.9197 112.416 16.5953 112.145 15.03 111.874Z" fill="white"/>
<path d="M65.5459 111.747C64.7934 112.981 64.1913 113.914 63.6194 114.878C64.974 115.57 66.3887 116.894 67.653 116.774C68.9173 116.654 70.031 115.088 71.205 114.155C70.6632 113.493 70.2418 112.499 69.5193 112.229C66.5392 110.964 63.4387 109.941 59.9168 108.616C61.4821 108.255 62.8668 107.472 64.0107 107.743C67.4423 108.556 70.9642 109.429 74.155 110.904C77.2856 112.349 77.3759 114.938 74.5463 116.894C72.5295 118.279 70.2417 119.423 67.9239 120.145C66.8402 120.476 65.3352 119.694 64.101 119.212C63.0173 118.791 61.8434 118.219 61.0306 117.406C59.9771 116.353 59.2245 114.998 58.3516 113.764C60.1577 112.861 61.9036 111.837 63.8 111.085C64.2816 110.874 65.0944 111.536 65.5459 111.747Z" fill="white"/>
<path d="M26.4369 120.18C26.4369 117.2 26.3767 114.37 26.4971 111.541C26.5272 110.969 27.3099 109.975 27.7614 109.945C30.591 109.915 33.4506 109.885 36.2501 110.306C37.394 110.487 39.2001 111.751 39.2001 112.534C39.2001 113.648 37.8756 114.822 37.0628 115.905C36.7919 116.237 36.3103 116.417 35.7384 116.778C36.9124 117.832 37.9659 118.855 39.1098 119.728C40.2536 120.601 41.548 121.294 42.7822 122.106C38.3572 125.237 33.7215 121.474 31.193 115.725C32.5476 115.093 33.9022 114.461 35.7685 113.588C31.8553 111.902 30.4405 112.715 30.4104 115.875C30.3803 117.26 30.4104 118.615 30.4104 120.18C29.116 120.18 27.9721 120.18 26.4369 120.18Z" fill="white"/>
<path d="M117.078 109.758C120.329 109.908 123.61 109.848 126.831 110.33C128.005 110.51 129.54 111.805 129.871 112.888C130.082 113.611 128.487 114.935 127.644 115.929C127.373 116.26 126.861 116.41 126.048 116.892C128.577 118.788 130.925 120.564 133.303 122.34C128.547 125.32 123.761 120.805 121.864 115.688C123.189 115.116 124.513 114.544 126.229 113.791C122.918 111.865 121.142 112.648 120.991 115.507C120.901 117.042 120.961 118.608 120.961 120.263C119.667 120.263 118.403 120.263 117.108 120.263C117.078 116.862 117.078 113.611 117.078 109.758Z" fill="white"/>
<path d="M49.7043 120.449C48.8313 120.359 48.1691 120.329 47.537 120.178C43.5936 119.245 41.3059 117.469 41.4865 115.181C41.7574 111.75 44.7375 111.178 47.266 110.245C47.4467 110.184 47.5972 110.064 47.7778 110.034C51.089 109.372 54.0691 110.245 56.2364 112.713C56.9889 113.586 57.2297 115.693 56.6879 116.747C55.3032 119.576 52.293 119.968 49.7043 120.449ZM45.791 115.211C47.7477 117.018 49.7946 117.559 52.0823 116.295C53.4068 115.543 53.4068 114.549 51.992 113.857C49.7043 112.743 47.6273 112.984 45.791 115.211Z" fill="white"/>
<path d="M102.538 120.386C101.696 119.904 100.823 119.423 99.8594 118.881C101.605 115.509 105.699 113.342 104.796 108.616C105.729 108.285 106.723 107.924 107.746 107.562C110.515 111.385 113.194 115.088 116.024 118.971C114.278 119.694 113.255 120.446 110.997 119.152C108.77 117.918 105.127 117.707 102.538 120.386Z" fill="white"/>
<path d="M144.21 23.9579C141.561 25.5533 138.912 27.1487 136.233 28.714C134.698 29.617 133.133 30.49 131.568 31.3629C133.946 33.8012 136.354 32.4165 138.732 31.8145C139.755 31.5435 140.779 31.3328 141.832 31.1221C141.893 31.3027 141.953 31.4532 141.983 31.6338C141.14 31.965 140.327 32.4466 139.454 32.6272C134.006 33.6507 128.558 34.6139 123.109 35.6073C119.286 36.2996 115.433 36.9619 111.58 37.6241C110.707 37.7746 109.834 37.7445 108.931 37.594C113.747 36.2394 118.654 35.1256 123.35 33.4098C128.106 31.694 132.651 29.4063 137.317 27.3594C137.257 27.2089 137.197 27.0584 137.136 26.9079C135.812 27.239 134.457 27.6002 133.133 27.841C124.644 29.3762 116.125 29.4966 107.607 28.0216C98.0042 26.366 88.4017 24.7405 78.7692 23.1752C76.6018 22.814 74.4044 22.7839 72.2069 22.6033C72.1768 22.7538 72.1468 22.9344 72.1468 23.0849C79.3712 24.3191 86.5956 25.5533 93.82 26.7574C93.7899 26.9681 93.79 27.1487 93.7599 27.3594C92.5558 27.5099 91.3517 27.6604 90.1476 27.8109C93.8201 29.316 97.7032 29.7374 101.556 30.2492C105.439 30.7609 109.353 31.1221 113.296 31.7241C97.7634 35.4568 81.99 37.0823 66.006 37.0522C66.006 37.2027 66.006 37.3833 66.006 37.5338C69.0162 37.594 72.0564 37.6843 75.0666 37.7144C78.1671 37.7445 81.2676 37.7445 84.3681 37.6843C87.4686 37.6241 90.5691 37.4736 93.6695 37.4134C96.7399 37.3532 99.8103 37.4134 103.332 37.4134C89.8165 38.7981 76.7222 38.7981 63.5677 38.4669C63.7484 38.4971 63.9289 38.5874 64.1096 38.5874C64.3504 38.6175 64.6213 38.5573 64.8621 38.5874C65.8856 38.7379 67.1498 37.9853 67.8723 39.4001C67.9626 39.5807 68.5345 39.5205 68.8657 39.5205C72.1768 39.6409 75.458 39.7613 78.7692 39.9118C79.1605 39.9419 79.5217 40.2731 79.8829 40.4537C79.8528 40.6644 79.8227 40.8751 79.7926 41.0858C81.3278 40.8751 82.8329 40.5741 84.3681 40.4838C85.6324 40.3935 86.8063 39.9118 88.1609 40.8751C89.0037 41.447 90.5691 40.9955 91.8634 41.1761C84.338 43.7649 76.7222 45.9322 69.0162 47.9189C61.2499 49.9357 53.2428 49.8755 45.326 50.5679C48.3964 51.8923 51.527 51.3204 54.6576 51.1097C54.6877 51.2301 54.7178 51.3806 54.778 51.501C53.7244 51.9525 52.6709 52.4342 51.5872 52.8255C50.7444 53.1566 50.1423 53.4877 50.8347 54.5413C51.527 55.625 50.8949 56.0464 49.8714 55.926C48.6373 55.7755 47.373 55.5949 46.199 55.2336C43.6704 54.451 41.172 54.6316 38.6134 55.053C39.9378 56.8591 41.744 57.3107 43.8511 57.1C43.8511 57.2806 43.8209 57.4612 43.8209 57.6418C42.948 57.7622 42.1052 57.9428 41.2322 58.0331C37.2287 58.3642 33.4057 57.2204 29.5226 56.4979C22.5089 55.1734 16.3982 52.1031 11.0702 47.3771C9.74575 46.2031 8.09015 45.3904 6.58506 44.397C5.86261 43.9455 5.11008 43.5541 4.41774 43.0424C2.49123 41.5674 2.28052 40.6042 3.21367 38.4067C3.7254 37.2027 4.26723 36.0287 4.71876 34.8246C5.14018 33.6808 4.86927 32.8379 3.51469 32.4466C0.083085 31.4532 -1.0307 27.9614 1.04632 25.0415C1.28713 24.7104 1.52794 24.3793 1.82896 24.1385C5.44117 21.5196 7.81923 17.7268 10.7993 14.536C11.6121 13.6631 12.2743 12.6396 12.9666 11.6764C14.4717 9.47893 16.4283 7.76313 18.8967 6.79987C19.8901 6.40855 21.1242 6.49885 22.238 6.46875C22.8099 6.46875 23.4421 6.64936 23.9839 6.82997C27.6563 8.06414 31.3588 7.82333 35.0914 7.04068C35.543 6.95038 36.0246 6.92027 36.5363 7.04068C35.5731 7.55241 34.6098 8.06414 33.6165 8.57588C33.6466 8.72638 33.6766 8.84679 33.7369 8.9973C35.2118 8.9973 36.6868 9.20801 38.1016 8.9672C47.5837 7.46211 56.7045 9.0274 65.8254 11.5258C70.3407 12.7901 74.9161 13.934 79.4916 14.8671C81.7793 15.3488 84.1574 15.2284 86.4752 15.4993C88.9135 15.8003 88.8833 15.8605 89.4853 18.2084C89.6058 18.6299 90.0874 19.0513 90.5089 19.2921C90.9604 19.563 91.5323 19.6232 92.0139 20.0748C90.1476 19.8038 88.2813 19.6232 86.4451 19.2319C77.8962 17.3656 69.4075 15.3488 60.8285 13.6029C56.5841 12.7299 52.2495 12.1881 47.9148 11.7366C40.6603 11.0141 33.6767 12.4891 26.9038 15.0478C24.9471 15.8003 22.9905 16.5829 21.064 17.3656C18.0538 18.6299 16.338 21.1283 14.863 23.988C15.5855 23.5365 16.338 23.0548 17.0605 22.6033C26.1512 16.7636 36.145 14.4156 46.8311 15.4993C56.0724 16.4324 65.2835 17.9676 74.5248 18.9008C77.9564 19.2319 81.3278 19.5329 84.6691 20.3457C85.3313 20.4962 85.9936 20.7069 86.6558 20.8875C86.6558 21.038 86.6558 21.1885 86.6257 21.339C83.5553 21.5196 80.4548 21.7304 77.3844 21.911C87.0772 23.3559 96.6797 22.513 106.252 20.5263C106.282 20.7069 106.312 20.8574 106.312 21.038C103.904 21.5497 101.496 22.0615 99.0879 22.5431C99.0879 22.6033 99.0577 22.6936 99.0577 22.7538C99.9006 22.8742 100.774 22.9645 101.616 23.1451C105.018 23.8977 108.449 24.6201 111.851 25.463C114.951 26.2155 117.992 26.1854 121.032 25.3125C122.296 24.9512 123.621 24.7104 125.306 24.3492C124.735 25.0114 124.464 25.3426 124.193 25.6436C125.517 27.0283 125.638 27.0283 127.022 25.764C127.233 25.5834 127.564 25.4028 127.805 25.4329C129.22 25.5533 130.604 25.764 132.019 25.9446C132.019 26.0951 132.049 26.2456 132.049 26.3961C131.176 26.6971 130.333 26.9982 129.461 27.2992C131.628 27.6905 133.494 26.9982 135.15 25.5232C135.21 25.6436 135.27 25.764 135.3 25.8844C135.12 26.0951 134.939 26.3058 134.758 26.5466C134.819 26.6369 134.849 26.7273 134.909 26.7875C137.979 25.6436 141.05 24.4997 144.12 23.3258C144.21 23.5365 144.21 23.7472 144.21 23.9579ZM49.7209 52.4643C47.9449 52.2235 46.1689 52.0429 44.3929 51.7719C39.7572 51.0796 35.0614 50.6281 30.4859 49.6046C24.2548 48.1898 19.2278 44.8485 15.9166 39.2195C14.7125 37.1726 12.7559 35.9685 10.6187 35.0955C11.6723 38.2863 12.6957 41.3868 13.8095 44.6679C12.9967 44.1261 12.3044 43.6445 11.2508 42.9521C12.6957 45.1495 18.084 49.0026 18.5656 48.3704C18.385 48.1597 18.2344 47.9791 17.7528 47.4072C19.0171 47.8286 19.86 48.0393 20.6727 48.3704C23.2013 49.424 25.7599 50.4776 28.2583 51.5913C35.3022 54.752 42.4965 54.3607 49.7209 52.4643ZM38.9445 47.7082C46.1388 49.2735 53.4234 49.8153 60.6779 48.551C66.8488 47.4674 72.9595 45.872 79.0702 44.4271C81.8997 43.7649 84.6992 42.922 87.2578 42.2297C79.2207 41.447 71.0029 40.6343 62.6647 39.8215C66.909 40.8751 71.033 41.8685 75.1569 42.8919C63.5075 47.5276 51.3464 48.4607 38.9445 47.7082ZM80.0635 31.393C79.913 31.3027 79.7625 31.2124 79.5819 31.1522C74.886 29.9481 70.2202 28.7441 65.5244 27.54C61.0392 26.3961 56.554 25.1018 51.8581 25.1018C51.1056 25.1018 50.3531 25.2523 49.6005 25.3426C49.6005 25.463 49.6306 25.6135 49.6306 25.7339C50.3229 25.7339 51.0153 25.7339 51.7076 25.7339C52.5505 25.764 53.4535 25.6135 54.2362 25.8543C56.5239 26.5466 58.7816 27.4196 61.0693 28.1721C62.6346 28.714 64.23 29.1956 65.7952 29.6772C65.7952 29.8277 65.7952 29.9481 65.7952 30.0987C58.7815 31.092 51.7076 31.8446 45.0852 34.7042C56.5841 31.8446 68.3238 31.9048 80.0635 31.393ZM40.5399 20.0146C40.5399 19.9242 40.5098 19.8339 40.4797 19.7436C38.9746 19.8339 37.4695 19.8339 35.9945 20.0146C30.7267 20.6467 25.4589 21.3089 20.9436 24.4997C20.6426 24.7104 20.2212 24.9512 19.8599 24.9211C17.8732 24.8609 17.2411 26.3359 16.7293 27.7808C16.5788 28.1721 16.8197 28.9849 17.1207 29.1655C17.4819 29.3461 18.1743 29.1354 18.5656 28.8946C18.987 28.6237 19.2278 28.0517 19.5288 27.6002C19.589 27.7507 19.6492 27.8711 19.7094 28.0216C20.6727 27.7507 21.7263 27.6303 22.539 27.1487C26.7231 24.6502 30.9675 22.3926 35.7236 21.2487C37.3792 20.8875 38.9445 20.436 40.5399 20.0146ZM10.6789 20.4059C14.4115 18.961 18.2043 17.787 21.5155 15.3187C24.7063 12.9707 28.1981 11.0743 31.5695 8.9672C31.4491 8.75648 31.3287 8.57587 31.2083 8.36516C23.7732 11.3151 15.5253 12.8804 10.6789 20.4059ZM35.0011 33.7109C35.0011 33.5604 35.0011 33.4399 35.0011 33.2894C30.9675 33.2894 26.9338 33.2894 22.9002 33.2894C22.9002 33.1389 22.9002 33.0185 22.9002 32.868C25.0675 32.2961 27.2048 31.7542 29.3721 31.1823C24.4354 30.7308 19.589 30.6706 14.6523 33.2593C15.8564 33.9517 16.7293 34.4634 17.6324 35.0052C17.5722 35.1859 17.4819 35.4869 17.3615 35.9083C20.0406 35.9986 22.4788 35.8481 25.0073 35.1859C28.2282 34.3129 31.6598 34.1624 35.0011 33.7109ZM52.5204 43.1628C47.7342 41.5674 42.6771 42.2598 37.7705 41.3567C32.894 40.4838 27.9573 39.7914 23.0507 39.0088C23.0206 39.1593 23.0206 39.3098 22.9905 39.4603C32.4726 43.2832 42.4363 43.7348 52.5204 43.1628ZM10.4682 18.1181C5.14018 22.0314 5.17026 30.0384 8.30084 32.6272C8.69217 29.2859 9.08349 25.9747 9.50491 22.5732C9.17379 22.513 8.75237 22.4528 8.15033 22.3625C8.96308 20.8574 9.71565 19.4727 10.4682 18.1181ZM41.3526 36.0588C37.7103 36.2394 34.2787 35.8782 30.8471 37.293C31.0879 37.5338 31.1782 37.6843 31.2986 37.7144C35.3022 38.1358 39.3358 38.6175 43.3393 38.8884C44.9046 38.9787 45.1455 38.196 44.3026 36.5404C42.9179 37.0522 41.5633 37.5639 39.8776 38.2261C40.4496 37.3532 40.8108 36.8415 41.3526 36.0588ZM35.543 44.2465C40.6603 44.8184 45.8378 45.3302 51.0755 44.6679C51.0755 44.5174 51.0755 44.397 51.0755 44.2465C45.8679 44.2465 40.6603 44.2465 35.543 44.2465ZM58.2397 24.3492C58.2096 24.4997 58.1795 24.6201 58.1193 24.7706C60.3468 25.3125 62.6045 25.8543 64.832 26.3961C64.8621 26.2757 64.8922 26.1854 64.9223 26.065C62.6948 25.463 60.4672 24.891 58.2397 24.3492ZM33.0746 32.2359C33.1047 32.4165 33.1649 32.567 33.195 32.7476C34.4593 32.4466 35.6935 32.1456 36.9578 31.8747C36.8976 31.694 36.8675 31.5134 36.8073 31.3027C35.5731 31.6338 34.3088 31.9349 33.0746 32.2359Z" fill="white"/>
<path d="M58.6028 0C58.7232 0.210712 58.8135 0.571932 58.9339 0.571932C59.7166 0.632136 60.4992 0.602036 61.4023 0.602036C56.4355 5.14741 51.3182 8.75962 44.0938 7.19432C44.1841 7.07392 44.2443 6.92341 44.3647 6.8331C48.3682 4.00354 52.3115 1.05356 57.3385 0.240813C57.4589 0.210711 57.5794 0.0903049 57.7299 0.0301013C58.0008 -4.59765e-07 58.3018 0 58.6028 0ZM48.0672 5.89995C50.7764 6.7729 57.6697 3.82292 58.9941 1.32448C55.7431 1.44488 50.7463 3.52191 48.0672 5.89995Z" fill="white"/>
<path d="M115.343 43.9778C115.072 44.0681 114.802 44.1584 114.531 44.2487C112.393 44.8507 110.226 45.3926 108.089 46.0849C103.905 47.4395 99.6303 47.4395 95.3257 47.2589C94.1216 45.9645 92.4961 46.5966 91.0513 46.3859C91.0212 46.2354 90.991 46.0849 90.9609 45.9043C94.0915 45.0012 97.1619 43.9477 100.323 43.1951C103.694 42.4125 107.126 42.262 110.557 43.2252C112.062 43.6467 113.718 43.5864 115.313 43.7671C115.313 43.8273 115.313 43.9176 115.343 43.9778ZM107.246 43.9477C102.911 42.9543 98.8476 43.9176 94.8742 45.513C94.9043 45.6635 94.9043 45.814 94.9344 45.9645C98.667 45.6936 102.43 45.3926 106.162 45.1216C106.162 45.0012 106.162 44.8808 106.132 44.7604C105.651 44.5798 105.169 44.3691 104.687 44.1885C104.717 44.0982 104.717 44.038 104.748 43.9477C105.59 43.9477 106.403 43.9477 107.246 43.9477Z" fill="white"/>
<path d="M85.066 13.6099C91.8991 13.2186 98.7322 12.5564 105.084 16.4094C104.331 16.4395 103.579 16.4395 102.826 16.5298C101.833 16.6502 100.9 16.8007 101.261 18.2456C101.471 19.1186 100.749 19.3895 100.177 19.1487C98.7021 18.5165 97.3174 17.7339 95.9026 17.0114C95.4812 16.8007 95.0598 16.5298 94.6083 16.4094C91.4175 15.5967 88.2267 14.814 85.0359 14.0314C85.0058 13.911 85.0359 13.7605 85.066 13.6099ZM91.2971 14.3625C94.9996 15.7773 98.8225 16.0783 102.706 15.8676C102.706 15.7472 102.736 15.6268 102.736 15.5064C98.9128 15.115 95.0899 14.7538 91.2971 14.3625Z" fill="white"/>
<path d="M99.9297 39.7277C102.518 39.3966 105.107 39.0655 107.666 38.7344C107.696 38.8548 107.696 39.0053 107.726 39.1257C105.167 39.4568 102.579 39.818 100.02 40.1492C99.9898 40.0288 99.9598 39.8782 99.9297 39.7277Z" fill="white"/>
</svg>
