<svg width="145" height="124" viewBox="0 0 145 124" fill="none" xmlns="http://www.w3.org/2000/svg">
<path d="M24.0703 120.452C24.0703 116.69 24.0703 113.318 24.0703 109.375C27.6524 109.646 31.2045 109.766 34.6662 110.278C36.3519 110.519 37.7064 111.663 37.0141 113.89C36.8937 114.251 37.1345 114.854 37.4054 115.215C39.3018 117.623 39.0911 119.309 36.1411 120.031C33.4621 120.723 30.5422 120.543 27.7126 120.663C26.5688 120.723 25.3948 120.543 24.0703 120.452ZM28.3147 117.563C30.0907 117.563 31.7463 117.563 33.5223 117.563C32.0774 116.69 30.9335 115.997 29.5187 115.155C30.9937 114.462 31.8366 114.071 32.7095 113.68C32.6794 113.439 32.6493 113.198 32.6493 112.927C31.2646 112.716 29.8799 112.506 28.3147 112.295C28.3147 114.402 28.3147 116.027 28.3147 117.563Z" fill="white"/>
<path d="M109.171 116.008C110.496 115.436 111.82 114.864 113.506 114.142C110.345 112.185 108.479 112.968 108.328 115.797C108.238 117.333 108.298 118.898 108.298 120.584C107.034 120.584 105.77 120.584 104.445 120.584C104.445 117.242 104.445 113.991 104.445 110.078C107.757 110.259 111.128 110.289 114.409 110.77C115.493 110.921 117.118 112.276 117.208 113.179C117.299 114.142 115.854 115.256 115.011 116.279C114.74 116.61 114.228 116.761 113.386 117.242C115.914 119.139 118.262 120.915 120.58 122.661C115.974 125.581 111.278 121.366 109.171 116.008Z" fill="white"/>
<path d="M45.1432 113.831C46.1968 114.945 49.1468 112.507 49.2973 116.119C47.9126 116.209 46.6483 116.299 45.4142 116.39C45.4142 116.57 45.4142 116.751 45.4142 116.932C48.5447 116.932 51.6452 116.932 54.7758 116.932C54.3243 120.423 53.9029 120.965 50.6519 120.664C47.7621 120.393 44.8723 119.791 42.0729 118.978C40.1163 118.406 39.0025 116.751 39.8152 114.644C40.5979 112.597 40.9892 110.068 44.1499 110.159C47.1601 110.249 50.1702 110.189 53.361 110.189C52.2774 115.938 47.6718 112.266 45.1432 113.831Z" fill="white"/>
<path d="M93.3272 114.037C94.5915 114.037 95.8557 114.037 97.0899 114.037C97.3608 116.174 97.3608 116.174 93.7486 116.867C96.8491 116.867 99.9797 116.867 103.201 116.867C102.749 119.606 101.665 121.231 98.7154 120.69C96.0364 120.208 93.2971 119.847 90.6482 119.124C88.6012 118.552 87.367 117.168 87.9089 114.76C88.5711 111.9 90.1966 110.154 92.4241 110.154C95.3741 110.124 98.294 110.154 101.394 110.154C101.184 112.532 100.341 113.826 97.8124 113.525C96.2772 113.345 94.7119 113.495 93.1767 113.495C93.2369 113.676 93.2971 113.857 93.3272 114.037Z" fill="white"/>
<path d="M61.1821 109.04C63.1688 107.716 64.4632 107.836 65.7877 110.094C67.654 113.255 70.032 116.084 72.38 119.335C70.6341 119.937 69.3397 121.473 67.4132 119.305C66.2994 118.041 60.5801 119.245 58.8342 120.72C57.9612 120.238 57.0582 119.697 56.125 119.185C58.0515 115.783 61.8745 113.616 61.1821 109.04Z" fill="white"/>
<path d="M73.6122 120.486C73.6122 117.506 73.8831 114.736 73.552 111.997C73.1607 108.836 74.4551 107.391 77.7662 107C77.8867 109.107 78.0372 111.244 78.1576 113.382C85.2315 112.057 85.2315 112.057 86.3754 113.412C84.9305 114.194 83.5458 114.917 81.9504 115.79C83.5759 117.144 84.9907 118.348 86.556 119.673C82.2213 123.074 80.9871 117.626 77.9469 117.205C78.278 120.455 76.5622 121.359 73.6122 120.486Z" fill="white"/>
<path d="M0.09032 35.2572C0.391338 33.2705 0.782654 31.2838 1.02347 29.2669C1.29438 26.8588 1.23417 24.3603 1.68569 22.0124C1.92651 20.7481 2.85967 19.4839 3.76272 18.5206C4.75608 17.467 5.80966 17.6476 6.41169 18.942C7.31475 20.8384 8.72951 21.2298 10.5657 20.9588C19.1748 19.7548 28.0549 21.0792 36.4834 18.5808C45.0925 16.0221 53.6113 13.1625 62.1301 10.3028C73.93 6.35947 85.7901 2.71716 98.0415 0.399324C103.61 -0.654239 108.878 0.579934 114.206 1.7539C120.347 3.10848 126.096 5.42632 130.973 9.36965C135.097 12.711 138.167 16.8951 139.492 22.2532C140.244 25.3236 141.388 28.3338 142.622 31.2537C143.887 34.2939 144.067 37.4546 144.188 40.6153C144.248 42.5117 142.502 43.4449 140.997 42.301C139.973 41.5184 139.04 40.3444 138.619 39.1704C136.903 34.4444 135.037 29.7486 133.863 24.8721C132.598 19.6043 129.558 16.3834 124.531 14.788C122.033 14.0053 119.534 13.1926 117.036 12.3798C118.631 15.0589 120.257 17.7078 121.822 20.417C123.809 23.8787 125.013 27.6113 125.344 31.5848C125.524 33.722 124.561 34.3842 122.785 33.1802C121.31 32.1567 119.956 30.772 118.992 29.297C116.915 26.1363 115.079 22.7951 113.213 19.514C110.654 14.9987 106.711 12.2594 101.804 10.9048C100.45 10.5135 98.8242 10.8145 97.3793 11.0855C89.9742 12.4701 82.5391 13.8247 75.7361 17.4068C73.9601 18.34 71.8229 18.5206 69.8361 19.0624C68.3009 19.514 66.6755 19.7849 65.2908 20.5374C60.625 23.0359 56.0495 25.6848 51.4139 28.2736C49.9991 29.0562 49.3669 30.2603 49.3669 31.8256C49.3669 34.8358 50.1797 37.4546 53.0695 38.9898C54.9358 39.9531 56.772 40.9464 58.6684 41.8796C61.6786 43.3847 64.2071 45.4316 66.3744 47.9902C68.2407 50.1877 68.2708 51.2713 66.7055 53.5591C66.4045 53.5591 66.1035 53.5591 65.8025 53.5591C64.5081 50.9703 62.3107 49.5856 59.6316 48.7127C58.3071 48.2612 57.0128 47.7193 55.7485 47.1474C50.7215 44.8898 45.7848 42.5719 41.8114 38.5684C40.3966 37.1536 38.5303 36.1 36.7543 35.1368C34.2558 33.7521 31.5166 33.2705 28.6268 33.5414C22.6064 34.0832 16.5861 34.5347 10.5657 35.0465C7.70605 35.2873 5.05711 35.7689 3.55203 38.749C2.64897 40.525 1.53519 40.4648 0 38.9296C0.0903054 37.6653 0.09032 36.4613 0.09032 35.2572Z" fill="white"/>
</svg>
