<svg width="122" height="124" viewBox="0 0 122 124" fill="none" xmlns="http://www.w3.org/2000/svg">
<path d="M7.55558 117.744C8.78975 115.817 10.054 113.891 11.4688 111.693C16.1346 110.459 14.5994 117.082 18.6029 117.593C19.1448 115.667 19.7468 113.56 20.4392 111.152C21.7034 111.423 23.058 111.693 25.2253 112.115C23.7503 115.306 22.486 118.195 20.9809 120.935C20.7401 121.386 19.0244 121.537 18.3922 121.176C16.3152 119.911 14.4188 118.346 12.5224 116.961C10.8668 118.195 9.15099 119.58 7.34488 120.814C5.56887 122.018 4.06374 121.808 3.16069 119.701C2.10713 117.292 1.11377 114.854 0 112.145C1.83621 111.693 3.22089 111.362 4.66578 111.031C5.32802 113.289 5.93004 115.336 6.53207 117.413C6.86319 117.503 7.19436 117.624 7.55558 117.744Z" fill="white"/>
<path d="M41.1747 117.799C40.7532 120.779 39.3685 122.193 36.4787 121.622C33.7094 121.05 30.8799 120.658 28.1707 119.846C26.3044 119.304 25.1605 117.708 25.8829 115.752C26.6355 113.735 27.0268 111.086 30.1273 111.086C33.1676 111.086 36.2079 111.086 39.3987 111.086C39.2181 113.464 38.4053 114.758 35.8467 114.457C34.3717 114.277 32.8365 114.427 31.3314 114.969C32.2344 114.969 33.1375 114.849 34.0104 115.029C34.5522 115.15 35.0038 115.722 35.5155 116.083C35.0339 116.474 34.5824 117.016 34.0405 117.167C33.3482 117.347 32.5956 117.227 31.8431 117.829C34.9135 117.799 37.9538 117.799 41.1747 117.799Z" fill="white"/>
<path d="M106.57 117.792C106.149 120.772 104.764 122.187 101.874 121.615C99.1049 121.043 96.2753 120.652 93.5661 119.869C91.7299 119.327 90.5559 117.732 91.2783 115.775C92.0309 113.758 92.4222 111.109 95.5227 111.109C98.563 111.109 101.603 111.109 104.794 111.109C104.583 113.487 103.801 114.782 101.242 114.481C99.737 114.3 98.2319 114.451 96.6967 114.993C97.5997 114.993 98.5028 114.872 99.3758 115.053C99.9176 115.173 100.369 115.745 100.881 116.106C100.399 116.498 99.9778 117.039 99.4058 117.19C98.7436 117.371 97.961 117.25 97.2085 117.852C100.279 117.792 103.319 117.792 106.57 117.792Z" fill="white"/>
<path d="M79.3 117.955C79.3 119.129 79.3 120.212 79.3 121.446C77.7347 121.446 76.3199 121.446 74.875 121.446C74.875 118.135 74.875 114.884 74.875 111.332C76.35 111.242 77.7648 111.152 79.3 111.031C79.3 112.386 79.3 113.439 79.3 114.734C81.4673 114.734 83.6648 114.734 85.8923 114.734C85.7117 110.971 85.9826 110.73 90.257 111.392C90.257 114.643 90.257 117.925 90.257 121.477C88.8724 121.597 87.5178 121.687 86.0428 121.808C86.0428 120.453 86.0428 119.309 86.0428 117.955C83.7852 117.955 81.7082 117.955 79.3 117.955Z" fill="white"/>
<path d="M42.8712 121.622C43.7742 117.017 47.3864 118.642 50.6374 118.101C48.4399 117.709 46.7543 117.739 45.3997 117.077C44.1956 116.475 43.3527 115.121 42.3594 114.097C43.5032 113.104 44.5869 111.418 45.8512 111.267C48.8915 110.846 52.0522 111.117 55.3935 111.117C54.4001 113.495 53.4067 115.09 50.6374 114.097C49.7945 113.796 48.741 114.037 47.7175 114.699C49.3129 114.97 50.9384 115.181 52.5338 115.572C54.1894 115.963 55.8751 116.475 55.6343 118.733C55.3935 120.9 53.9185 121.622 51.9619 121.622C48.9517 121.653 45.9415 121.622 42.8712 121.622Z" fill="white"/>
<path d="M70.975 118.531C69.4398 121.872 67.2123 122.535 63.1184 120.939C59.4761 119.524 58.7838 117.809 60.1685 113.414C59.145 113.354 58.1517 113.293 57.0078 113.233C57.8206 111.066 58.9042 109.802 61.4328 109.922C65.346 110.133 69.2893 109.982 73.624 109.982C72.2092 112.24 70.8847 113.805 68.2357 113.354C67.5133 113.233 66.5801 113.083 66.0684 113.444C65.2256 114.016 64.3827 114.889 64.1118 115.792C63.9613 116.243 64.9847 117.447 65.6771 117.658C67.3327 118.14 69.1087 118.26 70.975 118.531Z" fill="white"/>
<path d="M114.392 113.706C115.777 111.869 116.891 110.424 118.155 108.769C119.208 109.311 120.202 109.822 121.286 110.334C118.336 114.699 115.506 118.883 112.526 123.248C111.533 122.917 110.359 122.525 109.034 122.074C110.148 120.208 111.141 118.552 112.165 116.866C110.629 114.699 109.124 112.532 107.469 110.184C108.884 109.25 110.058 108.468 111.352 107.625C112.375 109.702 113.308 111.568 114.392 113.706Z" fill="white"/>
<path d="M104.096 84.6161C104.096 85.2181 104.096 85.8202 104.096 86.4222C103.193 86.3921 102.29 86.4824 101.417 86.3319C93.1088 84.7365 84.7706 83.0809 76.4625 81.4253C75.6799 81.2748 74.9575 80.8233 74.2049 80.5223C74.6564 79.7697 74.9876 78.9269 75.5595 78.3248C77.0044 76.8498 78.5697 75.4652 79.9844 74.1407C73.3319 67.4882 66.9804 61.1668 60.8397 55.0562C54.5785 61.2872 48.1969 67.6387 41.5745 74.231C43.1699 75.706 44.8858 77.2412 46.5113 78.8667C47.9261 80.3116 47.7454 80.8835 45.8189 81.2748C40.3103 82.3886 34.7716 83.5023 29.2629 84.6161C25.8915 85.3084 22.5503 86.0008 19.209 86.7232C18.8176 86.7232 18.3962 86.7232 18.0049 86.7232C17.8544 86.1513 17.433 85.5192 17.5534 84.9773C19.2692 76.007 21.0752 67.0668 22.8512 58.1265C23.1824 56.4107 23.8446 56.2 25.139 57.4643C26.7043 58.9995 28.1491 60.6551 29.5338 62.1602C36.1562 55.5679 42.5077 49.2465 48.799 42.9853C42.598 36.8446 36.3368 30.6436 29.7746 24.1115C28.3599 25.6467 26.8548 27.3926 25.2293 29.0181C23.8145 30.4329 23.2125 30.1921 22.8212 28.2957C22.1589 25.135 21.4967 21.9442 20.8946 18.7835C19.7809 13.004 18.7273 7.22443 17.5834 1.44489C17.3727 0.331119 17.7038 -0.0602039 18.7875 0.0602032C19.1487 0.090305 19.4798 0.0903053 19.8411 0.150509C28.4502 1.83621 37.0593 3.49181 45.6684 5.20761C47.8056 5.62903 48.0163 6.23107 46.4811 7.73616C44.9761 9.24125 43.3205 10.6259 41.8455 11.9504C48.4378 18.5427 54.6688 24.8039 60.7193 30.8242C66.8902 24.6534 73.1513 18.4223 79.6232 11.9504C78.2687 10.6861 76.7635 9.39176 75.3788 7.94687C74.8671 7.43514 74.5962 6.62239 74.235 5.96015C74.8972 5.68924 75.5293 5.26781 76.1916 5.1173C81.0079 4.09384 85.8543 3.07038 90.7007 2.19743C95.1558 1.38468 99.6409 0.722443 104.096 0C104.096 0.602036 104.096 1.20407 104.096 1.80611C104.006 2.07702 103.855 2.34794 103.795 2.61885C102.109 11.1678 100.424 19.7468 98.7379 28.2957C98.3766 30.1319 97.7445 30.3426 96.42 29.0482C94.7644 27.3926 93.1991 25.6467 91.8145 24.1717C85.2824 30.6737 79.0212 36.9048 72.9105 42.9853C79.1416 49.1863 85.4931 55.5378 92.1155 62.1301C93.5303 60.5949 94.9751 58.8791 96.6006 57.3138C97.7445 56.1699 98.3766 56.4107 98.6777 57.976C99.8817 63.9362 101.056 69.8963 102.26 75.8565C102.862 78.8065 103.494 81.6962 104.096 84.6161Z" fill="white"/>
</svg>
