<svg width="145" height="120" viewBox="0 0 145 120" fill="none" xmlns="http://www.w3.org/2000/svg">
<path d="M65.3459 111.286C66.1888 111.798 67.0316 112.34 67.9046 112.791C69.7408 113.755 69.9214 115.079 68.4163 116.464C63.9612 120.558 52.944 119.715 49.2114 114.989C48.218 113.725 48.3384 112.551 49.6629 111.708C54.419 108.728 59.5363 108.065 64.9546 109.3C66.4597 109.691 66.5801 110.353 65.3459 111.286C62.2153 111.407 59.1149 111.407 56.0144 111.708C55.3521 111.768 54.7802 112.942 54.1782 113.604C55.8639 114.748 57.399 116.373 59.2654 116.945C61.0414 117.487 63.2388 117.096 64.7138 114.026C61.7337 114.026 59.3858 114.026 57.0378 114.026C57.0378 113.514 57.0077 113.032 57.0077 112.52C59.7771 112.099 62.5766 111.708 65.3459 111.286Z" fill="white"/>
<path d="M36.3271 114.353C36.1766 116.099 36.0863 117.273 35.9357 118.748C34.7919 118.959 33.6179 119.2 32.2031 119.471C32.2031 115.949 32.2031 112.758 32.2031 109.447C37.0194 107.069 38.7653 112.547 42.3474 113.571C42.6484 111.975 42.9495 110.41 43.2806 108.664C44.7255 109.206 45.8392 109.627 46.8928 110.019C46.6219 112.668 46.4413 115.196 46.1101 117.725C45.8994 119.471 43.9428 120.133 42.4076 119.019C40.5112 117.604 38.675 116.129 36.3271 114.353Z" fill="white"/>
<path d="M119.067 114.422C118.886 116.138 118.766 117.282 118.615 118.757C117.502 118.998 116.298 119.239 114.883 119.54C114.883 116.048 114.883 112.857 114.883 109.516C119.729 107.078 121.385 112.466 124.997 113.58C125.268 112.135 125.569 110.6 125.93 108.703C127.345 109.215 128.489 109.636 129.603 110.058C129.332 112.707 129.121 115.145 128.85 117.613C128.639 119.449 126.773 120.232 125.238 119.148C123.281 117.704 121.445 116.229 119.067 114.422Z" fill="white"/>
<path d="M94.7051 108.823C93.8021 114.632 89.1062 110.93 86.2766 112.706C87.4506 112.706 88.3536 112.555 89.1965 112.766C89.7383 112.886 90.1598 113.488 90.6113 113.88C90.0996 114.241 89.648 114.783 89.0761 114.903C88.3235 115.084 87.5108 114.933 86.698 115.596C89.9189 115.596 93.1398 115.596 96.3607 115.596C95.9694 118.425 94.7051 119.93 91.7551 119.358C88.9858 118.816 86.1562 118.425 83.4471 117.642C81.4302 117.071 80.3466 115.355 81.0991 113.338C81.8517 111.321 82.3333 108.732 85.4639 108.823C88.5042 108.883 91.5444 108.823 94.7051 108.823Z" fill="white"/>
<path d="M113.665 117.903C111.919 118.896 110.775 119.228 108.577 118.084C106.41 116.97 102.828 116.579 100.33 119.438C99.4265 118.927 98.4934 118.415 97.5 117.873C98.7944 116.097 100.029 114.532 101.082 112.846C102.045 111.341 103.821 109.956 102.075 107.759C103.31 107.307 104.303 106.946 105.417 106.555C108.156 110.287 110.835 113.99 113.665 117.903Z" fill="white"/>
<path d="M31.0107 118C29.8367 118.482 28.7531 118.933 27.7296 119.355C25.1108 117.037 20.2644 117.007 17.5251 119.415C16.7124 118.963 15.8093 118.452 14.9062 117.94C16.5919 114.448 20.5052 112.311 19.873 107.615C20.5353 107.344 21.5587 106.953 22.7026 106.531C25.4419 110.324 28.1811 114.087 31.0107 118Z" fill="white"/>
<path d="M79.655 116.676C78.6616 119.595 76.404 120.197 70.6244 119.114C70.6244 115.502 70.5642 111.859 70.6846 108.247C70.6846 107.705 71.2566 106.953 71.7683 106.712C72.8821 106.17 74.1463 105.929 75.4708 105.508C75.4708 109.21 75.4708 112.672 75.4708 116.435C76.7652 116.525 78.0897 116.585 79.655 116.676Z" fill="white"/>
<path d="M0 50.6135C0.481629 48.8374 1.80611 47.9946 3.49181 47.5732C6.83311 46.7002 10.2045 45.9778 13.4555 44.8941C20.7401 42.486 27.9646 39.8069 35.2492 37.3687C37.8379 36.4957 40.5772 36.0442 43.2262 35.3218C44.4603 34.9906 45.6343 34.509 46.9889 34.0575C46.9588 34.509 46.9588 34.81 46.9287 35.1712C47.4404 35.2916 47.922 35.382 48.6144 35.5325C48.2231 35.8937 47.9521 36.1646 47.4705 36.586C49.2766 36.586 50.872 36.586 52.8587 36.586C51.7149 37.3085 50.9322 37.7901 50.1195 38.3018C50.1797 38.4222 50.2399 38.5426 50.3001 38.6931C52.2567 38.0008 54.2133 37.3085 56.1699 36.6161C56.0796 36.4957 55.9592 36.3452 55.8689 36.2248C56.1699 35.7432 56.3806 35.0809 56.8322 34.7799C59.5112 32.8835 62.5214 31.7697 65.6219 30.6861C72.8764 28.1575 80.0406 25.328 87.235 22.6489C90.787 21.3244 94.4293 20.301 97.9211 18.826C103.339 16.5382 108.667 13.9796 113.995 11.5112C114.086 11.451 114.146 11.3005 114.447 10.8791C111.708 11.8725 109.33 12.7454 106.922 13.6184C106.861 13.498 106.801 13.3474 106.771 13.227C108.999 12.2036 111.256 11.1801 113.484 10.1567C113.484 10.0664 113.454 9.94595 113.454 9.85564C113.092 9.82554 112.641 9.67503 112.37 9.79544C109.691 10.9694 107.042 12.2036 104.363 13.3775C104.122 13.4679 103.701 13.1367 103.58 13.0765C104.995 12.5648 106.32 12.0832 107.674 11.6015C107.644 11.4811 107.644 11.3607 107.614 11.2704C107.343 11.3005 107.102 11.3005 106.771 11.3306C107.945 10.0965 109.179 9.76534 109.57 10.4577C110.203 9.97605 110.835 9.49442 111.617 8.86228C109.39 8.77198 107.403 9.25361 105.567 10.2169C97.2288 14.5515 88.8003 18.7658 80.6126 23.3713C77.8733 24.9065 74.9835 25.8999 72.1841 27.1943C82.4187 21.6254 92.6533 16.0265 102.888 10.4577C98.4328 11.2403 94.941 14.0097 90.8472 15.876C92.864 13.8893 91.9007 12.023 90.7569 9.85564C93.1048 8.74188 95.4227 7.62811 97.891 6.45414C98.3124 7.26689 98.764 7.89903 99.0048 8.59137C99.4262 9.82554 100.239 10.1567 101.443 9.82554C103.55 9.22351 105.657 8.74188 107.734 8.01943C109.39 7.4475 110.082 6.12302 109.902 4.34701C109.841 3.65467 109.902 2.99244 110.052 2.20979C110.564 4.1062 111.949 4.70824 113.604 4.70824C115.681 4.67814 117.728 4.46742 118.872 2.17969C119.083 2.20979 119.354 2.20979 119.564 2.3001C121.34 3.05264 122.996 3.05264 125.013 2.60111C127.511 2.02918 130.281 2.63121 132.96 2.78172C133.742 2.81182 134.525 3.08274 135.338 3.11284C138.92 3.23325 141.478 5.12966 143.375 7.89903C143.977 8.77198 144.398 10.247 144.097 11.2102C143.014 14.7622 142.141 18.4648 139.13 21.0836C138.829 21.3244 138.86 22.1372 138.98 22.6188C139.582 24.8162 139.612 24.8162 137.535 25.7494C136.662 26.1407 135.789 26.4718 134.886 26.833C133.893 27.2545 133.02 27.3448 132.267 26.2611C132.087 25.9601 131.244 25.8397 130.852 25.9902C128.143 27.0438 125.464 28.1274 122.845 29.3315C122.273 29.6024 121.822 30.2345 121.4 30.7764C120.919 31.3483 120.588 32.0407 120.106 32.6126C117.728 35.3519 117.367 35.3518 113.905 34.2983C112.46 33.8468 110.865 33.8167 109.36 33.5457C107.825 33.2748 107.132 34.0274 106.982 35.4422C106.861 36.5258 106.289 37.0978 105.236 37.3687C103.701 37.76 102.196 38.4222 100.63 38.6329C98.4629 38.934 97.6201 38.362 96.9579 36.285C96.5364 34.9304 95.7839 34.7197 94.4895 34.8401C85.5493 35.683 76.8198 37.5493 68.2408 40.1681C63.6051 41.5829 58.7888 42.3355 54.1531 43.7201C44.9721 46.4293 35.8512 49.3492 26.7003 52.1787C19.5963 54.3762 12.4922 56.6037 5.38822 58.8011C5.29791 58.8312 5.23771 58.9216 5.17751 58.9818C4.36476 58.9818 3.58211 58.9818 2.76936 58.9818C2.22753 57.8379 1.6857 56.694 1.14387 55.5501C0.752546 54.7073 0.421424 53.8343 0.0602027 52.9915C-9.19531e-07 52.2089 0 51.4262 0 50.6135ZM134.615 4.82865C134.344 5.18987 134.073 5.40058 133.983 5.7016C133.652 6.93577 133.381 8.10974 132.297 9.01279C131.846 9.37401 131.846 10.3373 131.665 10.9995C132.327 11.0597 133.05 11.2704 133.652 11.1199C134.013 11.0296 134.254 10.3373 134.465 9.88574C134.675 9.46432 134.675 8.92249 134.916 8.56126C135.879 7.26689 135.669 6.09292 134.615 4.82865ZM95.9043 22.077C95.9645 22.2576 96.0247 22.4382 96.0849 22.6188C101.323 20.7525 106.56 18.8862 111.798 17.0199C111.738 16.8694 111.678 16.7188 111.648 16.5382C106.38 18.4045 101.142 20.2408 95.9043 22.077ZM1.80611 51.0349C3.46171 50.5834 4.9969 50.192 6.50199 49.7706C6.32137 48.5063 5.62903 48.3257 4.66578 48.5063C2.55865 48.8675 1.80611 49.4395 1.80611 51.0349ZM114.748 19.5183C112.52 18.0734 109.54 19.6086 109.51 22.3479C110.805 20.2107 112.671 19.729 114.748 19.5183ZM116.494 12.7454C116.434 12.625 116.343 12.4745 116.283 12.3541C114.718 13.0163 113.153 13.6786 111.587 14.3408C111.648 14.4612 111.708 14.6117 111.768 14.7321C113.333 14.0699 114.929 13.4077 116.494 12.7454Z" fill="white"/>
<path d="M56.2734 31.6779C66.1468 27.2831 75.9901 22.9183 85.8635 18.5234C83.3048 20.7811 60.0663 31.2264 56.2734 31.6779Z" fill="white"/>
<path d="M114.716 4.09956C114.144 3.67814 113.572 3.28681 113 2.86539C113.361 2.41386 113.753 1.99244 114.385 1.17969C114.716 2.32356 114.927 3.0159 115.137 3.73834C114.987 3.85875 114.836 3.97915 114.716 4.09956Z" fill="white"/>
<path d="M115.479 0.00404488C114.275 0.997404 112.439 -0.266871 112.138 1.65964C111.686 1.56934 111.265 1.50913 110.633 1.38873C111.927 -0.146464 113.553 0.00404488 115.479 0.00404488Z" fill="white"/>
</svg>
