<svg width="110" height="124" viewBox="0 0 110 124" fill="none" xmlns="http://www.w3.org/2000/svg">
<path d="M105.517 111.811C106.299 112.293 107.052 112.835 107.865 113.226C110.062 114.279 110.303 115.634 108.467 117.169C103.711 121.082 93.6266 120.3 89.623 115.724C88.5093 114.43 88.5093 113.136 89.9843 112.233C94.7403 109.252 99.9179 108.59 105.336 109.945C106.962 110.336 106.661 111.149 105.457 111.871C102.416 111.962 99.4061 111.932 96.3959 112.263C95.7036 112.353 95.1317 113.617 94.4995 114.37C96.125 115.453 97.6301 116.989 99.4362 117.53C101.242 118.072 103.38 117.681 104.915 114.881C102.025 114.731 99.6168 114.611 97.2388 114.46C97.2388 113.978 97.2689 113.527 97.2689 113.045C100.008 112.594 102.747 112.202 105.517 111.811Z" fill="white"/>
<path d="M0.00752912 108.531C3.77025 108.832 7.38246 108.953 10.9345 109.495C12.4998 109.735 13.7339 110.909 13.1018 112.986C12.9814 113.408 13.3426 114.13 13.6737 114.552C15.239 116.538 15.2089 118.435 12.9513 118.856C8.94776 119.609 4.79371 119.488 0.699867 119.609C0.489154 119.609 0.0677253 118.645 0.0376236 118.104C-0.02258 115.214 0.00752912 112.384 0.00752912 108.531ZM4.43248 111.391C4.43248 113.618 4.43248 115.304 4.43248 117.17C6.26869 117.05 7.89419 116.96 9.8207 116.809C8.16511 115.846 6.99113 115.154 5.54625 114.311C7.02123 113.618 7.8942 113.257 8.73705 112.866C8.70695 112.625 8.67684 112.354 8.67684 112.113C7.32226 111.873 5.96767 111.662 4.43248 111.391Z" fill="white"/>
<path d="M78.4748 115.206C79.9197 114.574 81.2442 114.002 82.5386 113.43C82.4483 113.009 82.3279 112.617 82.2376 112.196C80.8228 112.316 79.4381 112.407 77.8728 112.527C77.8728 115.086 77.8728 117.283 77.8728 119.661C76.458 119.661 75.2239 119.661 74.0499 119.661C73.9295 116.832 73.7188 113.942 73.7188 111.052C73.7188 110.48 74.5014 109.457 74.9228 109.457C77.7524 109.396 80.6422 109.336 83.4416 109.758C84.6457 109.938 86.3916 111.203 86.5421 112.196C86.6926 113.159 85.1574 114.393 84.2845 115.477C84.0136 115.808 83.5319 115.989 82.8095 116.41C85.2778 118.246 87.5957 119.992 89.9135 121.708C85.7595 124.598 81.3947 121.437 78.4748 115.206Z" fill="white"/>
<path d="M72.7304 118.522C71.5263 119.004 70.4426 119.455 69.4192 119.877C66.8605 117.529 61.984 117.499 59.2448 119.907C58.4019 119.425 57.4989 118.914 56.4453 118.342C57.7096 116.626 58.9739 115.211 59.9371 113.586C60.8101 112.111 61.382 110.425 62.1044 108.83C61.8335 108.649 61.5626 108.468 61.2917 108.288C62.2851 107.896 63.2784 107.475 64.3922 107.023C67.1615 110.846 69.9008 114.609 72.7304 118.522Z" fill="white"/>
<path d="M32.0698 118.455C30.2938 119.268 28.9693 120.623 27.0729 118.425C26.0193 117.191 20.3301 118.486 18.7347 119.9C17.8617 119.449 16.9286 118.937 15.875 118.395C17.7413 115.114 21.4438 112.826 20.9622 108.131C21.6545 107.86 22.7382 107.438 23.7918 107.047C26.6214 110.9 29.3004 114.602 32.0698 118.455Z" fill="white"/>
<path d="M52.5354 113.918C52.5354 114.821 52.5354 115.544 52.5354 116.417C51.0604 116.477 49.7058 116.567 48.1104 116.627C47.7191 119.487 49.2242 123.641 43.8359 123.491C43.8359 118.975 43.8359 114.34 43.8359 109.523C47.5686 109.523 51.4517 109.523 55.4251 109.523C55.094 114.731 50.5787 111.661 47.5686 113.467C49.5854 113.647 50.94 113.768 52.5354 113.918Z" fill="white"/>
<path d="M37.8716 106C37.8716 109.763 37.8716 113.224 37.8716 116.957C39.2261 117.047 40.5506 117.108 41.8751 117.198C41.4236 120.148 38.9552 120.84 33.0854 119.636C33.0854 116.024 33.0252 112.412 33.1456 108.769C33.1456 108.228 33.7777 107.505 34.2894 107.234C35.343 106.692 36.517 106.421 37.8716 106Z" fill="white"/>
<path d="M10.3047 29.1084C10.9067 27.0615 11.4486 25.0447 12.0807 23.0279C12.4419 21.8539 12.8031 20.6197 13.4353 19.5963C15.4822 16.1647 17.6194 12.7933 19.847 9.48206C20.8102 8.03718 21.7434 6.62239 23.8505 6.32137C25.8974 6.05046 26.951 4.12394 28.1852 2.61886C28.7872 1.86631 29.4193 1.17397 30.0214 0.481628C30.1418 0.541832 30.2321 0.632138 30.3525 0.692341C30.3525 1.11377 30.3525 1.50509 30.3525 1.56529C31.0448 2.31784 31.4964 2.94997 32.0683 3.3413C32.7004 3.76272 33.453 4.09384 34.2055 4.15405C36.5836 4.36476 37.9381 5.56883 38.3295 7.85657C38.3897 8.21779 39.2024 8.81982 39.4432 8.72952C40.6774 8.21779 41.8213 7.52545 43.0855 6.83311C43.0253 7.04382 43.0855 7.58565 42.8447 7.82646C41.9718 8.72952 42.3029 9.57237 42.8447 10.3851C43.507 11.3484 44.2896 12.2514 45.3733 13.0943C45.1626 12.1611 44.9519 11.228 44.711 10.2948C44.8013 10.2346 44.9218 10.1744 45.0121 10.1443C45.3432 10.6861 45.7646 11.1979 45.9452 11.7999C46.5773 13.8468 47.2697 15.8937 47.6911 17.9708C48.5942 22.6365 50.3401 26.9411 52.6579 31.065C52.8084 31.336 52.9589 31.5768 53.0793 31.8477C53.0793 31.8778 53.0191 31.938 52.7482 32.3895C50.912 29.3191 49.1962 26.4595 47.5406 23.7503C46.1559 25.5564 47.2095 27.1518 48.4738 28.6268C50.3401 30.8242 52.3268 32.9314 54.3737 35.2191C56.4206 32.8109 58.4675 30.5533 60.3038 28.1452C61.8992 26.0681 61.7787 25.9778 60.9058 23.5697C59.3104 26.3993 57.6548 29.289 55.9089 32.4196C55.638 31.9681 55.5477 31.8778 55.5477 31.8477C58.3471 26.9411 60.0629 21.6733 60.9961 16.1045C61.2971 14.2983 61.9894 12.5524 62.5313 10.8065C62.6216 10.4754 62.9828 10.2346 63.4343 10.0239C63.2537 10.957 63.0731 11.8902 62.9226 12.7933C63.043 12.8535 63.1333 12.8836 63.2537 12.9438C64.0063 11.8902 65.0598 10.8968 65.4512 9.72288C65.7522 8.72952 65.2706 7.49534 65.12 6.38158C66.0532 7.04382 66.8358 7.82646 67.7991 8.27799C69.0935 8.88003 69.6052 8.4887 69.7557 7.07392C69.9363 5.41832 71.8026 3.73262 73.6087 3.67242C74.7827 3.64232 75.746 3.52191 76.2276 2.19743C76.3781 1.80611 77.0704 1.59539 77.6424 1.20407C77.6123 0.963257 77.5521 0.541832 77.4618 0C77.823 0.0602036 78.124 2.87073e-07 78.2444 0.150509C79.0271 0.993359 79.7495 1.86631 80.472 2.76936C81.7663 4.36476 83.2112 5.62903 85.3785 5.86985C87.0642 6.05046 87.576 7.67595 88.3586 8.75962C90.5862 11.7698 92.6632 14.8703 94.5897 18.0912C95.4927 19.5963 95.9142 21.3723 96.4861 23.0279C96.8774 24.1416 97.1483 25.3156 97.5096 26.4595C97.7504 27.2722 98.1417 28.0549 98.2922 28.8676C98.4728 29.7105 98.1718 30.3125 97.1483 29.8309C95.7034 29.1686 94.2586 28.8375 92.6632 29.289C92.1815 29.4094 91.5795 29.2288 91.0678 29.0783C86.4923 27.7237 82.7898 25.3758 80.6225 20.8304C79.3582 18.2116 77.3113 16.1948 74.1506 15.8636C72.2241 15.683 70.8093 16.4958 70.0567 18.2417C69.2741 20.0177 68.6119 21.8539 67.8894 23.66C67.167 25.5263 66.4746 27.3926 65.7221 29.2288C64.5782 31.9982 63.344 34.7074 61.2068 36.9349C60.2737 37.8981 59.6716 39.1323 58.8288 40.4267C60.4242 41.8415 61.9292 43.2563 63.4945 44.6108C67.8593 48.3435 72.4047 51.8955 76.5587 55.8388C79.6592 58.7888 82.2479 62.2505 85.0173 65.5316C88.1178 69.1739 91.2484 72.7861 94.2285 76.5488C95.7938 78.4754 97.1483 80.5825 98.4126 82.7498C99.5565 84.7365 99.2254 86.934 97.931 87.9875C96.3958 89.2518 93.2652 89.4926 91.7601 88.3186C90.4657 87.2952 89.2316 86.1814 88.2081 84.9171C83.3918 78.8366 78.726 72.6657 73.8797 66.6152C71.1103 63.1535 68.1904 59.7821 65.2706 56.471C64.4879 55.598 63.4042 55.0261 62.4711 54.3036C61.9293 53.8822 61.4175 53.4006 60.9359 52.9189C58.7987 50.8118 56.6915 48.7047 54.3737 46.4471C52.2967 48.7047 50.2498 50.9322 48.2028 53.1598C47.9319 53.4608 47.7513 53.8521 47.4202 54.0628C42.6641 57.1934 39.5636 61.799 36.2524 66.2239C32.5198 71.1907 28.8173 76.1274 25.1148 81.0942C24.3622 82.0876 23.6097 83.0809 22.9474 84.1646C21.4423 86.5727 19.5761 88.5896 17.1679 90.1247C16.1745 90.1247 15.1812 90.1247 14.1577 90.1247C10.5756 88.439 9.94347 86.6028 11.9302 83.0207C12.9537 81.1544 14.1577 79.3483 15.4822 77.6626C18.4924 73.7494 21.5929 69.8963 24.7234 66.0734C27.6132 62.5816 30.3525 58.9092 33.5734 55.7485C38.4499 50.9322 43.6274 46.4772 48.7748 41.9318C49.9186 40.9083 49.9788 40.1257 49.0457 38.9818C46.6977 36.092 44.2896 33.2324 42.935 29.6503C42.032 27.212 40.9784 24.834 39.9851 22.4559C39.4131 21.0713 38.8713 19.6866 38.1187 18.3922C37.0652 16.5861 35.5601 16.0141 33.5132 16.556C30.5632 17.3386 28.8474 19.4458 27.553 22.0646C26.3188 24.5631 24.5127 26.4595 22.1949 28.1151C18.6429 30.6737 14.3383 29.6804 10.6057 31.1252C10.5455 31.1553 10.4251 31.065 10.3348 31.0349C10.3047 30.3125 10.3047 29.7105 10.3047 29.1084ZM78.2143 9.15094C79.8398 10.054 81.074 9.45196 82.2178 7.28463C81.074 7.04382 79.9602 6.803 78.8465 6.56219C78.7862 6.65249 78.7561 6.7428 78.6959 6.83311C78.9669 7.13412 79.2077 7.40504 79.4786 7.73616C79.0572 8.18769 78.6357 8.66931 78.2143 9.15094ZM25.8974 8.03718C27.4627 10.2948 28.3658 10.656 29.9913 9.75298C29.5397 9.27135 29.1183 8.78972 28.6969 8.33819C28.9678 8.03718 29.2086 7.70606 29.4795 7.40504C29.4193 7.31473 29.3892 7.22443 29.329 7.13412C28.1852 7.46524 27.0714 7.73616 25.8974 8.03718ZM94.4091 23.1182C93.1448 25.7972 93.8672 27.3625 96.3657 27.513C95.6432 25.9477 95.0412 24.533 94.4091 23.1182ZM14.549 24.3523C14.3985 24.2921 14.2781 24.262 14.1276 24.2018C13.5557 25.5865 12.9838 26.9712 12.3516 28.5064C14.82 28.3559 15.422 26.9712 14.549 24.3523Z" fill="white"/>
<path d="M72.2499 1.20819C70.9254 2.32196 69.631 3.46582 68.3065 4.57959C68.1861 4.42908 68.0657 4.30867 67.9453 4.15817C69.2397 3.0143 70.5341 1.87043 71.8285 0.726562C71.979 0.907173 72.1295 1.05768 72.2499 1.20819Z" fill="white"/>
<path d="M36.185 1.20312C37.4793 2.28679 38.7737 3.37045 40.0681 4.45412C39.9778 4.54442 39.9176 4.66483 39.8273 4.75514C38.2319 4.00259 36.8472 3.00923 35.9141 1.47404C36.0044 1.38374 36.0947 1.29343 36.185 1.20312Z" fill="white"/>
</svg>
