<svg width="15" height="15" viewBox="0 0 15 15" fill="none" xmlns="http://www.w3.org/2000/svg">
<g clip-path="url(#clip0_17735_9503)">
<path d="M4.80519 7.69159C4.80519 6.36482 5.88045 5.28899 7.20721 5.28899C8.53397 5.28899 9.60981 6.36482 9.60981 7.69159C9.60981 9.01835 8.53397 10.0942 7.20721 10.0942C5.88045 10.0942 4.80519 9.01835 4.80519 7.69159ZM3.50639 7.69159C3.50639 9.73555 5.16325 11.3924 7.20721 11.3924C9.25118 11.3924 10.908 9.73555 10.908 7.69159C10.908 5.64762 9.25118 3.99077 7.20721 3.99077C5.16325 3.99077 3.50639 5.64762 3.50639 7.69159ZM10.1897 3.84403C10.1896 4.01508 10.2403 4.18232 10.3352 4.32458C10.4302 4.46685 10.5652 4.57775 10.7232 4.64328C10.8813 4.7088 11.0551 4.726 11.2229 4.69269C11.3907 4.65939 11.5448 4.57708 11.6658 4.45617C11.7868 4.33527 11.8693 4.1812 11.9027 4.01344C11.9362 3.84569 11.9191 3.67179 11.8537 3.51373C11.7883 3.35567 11.6775 3.22055 11.5353 3.12546C11.3931 3.03037 11.2259 2.97958 11.0549 2.97951H11.0545C10.8253 2.97962 10.6054 3.07072 10.4432 3.23282C10.2811 3.39492 10.1899 3.61475 10.1897 3.84403ZM4.2955 13.5581C3.59282 13.5261 3.2109 13.409 2.95709 13.3102C2.6206 13.1792 2.38051 13.0231 2.12809 12.7711C1.87566 12.519 1.71941 12.2791 1.58899 11.9426C1.49005 11.6889 1.373 11.3069 1.34106 10.6042C1.30612 9.84452 1.29914 9.61631 1.29914 7.69164C1.29914 5.76697 1.3067 5.5394 1.34106 4.77907C1.37306 4.07639 1.49097 3.6951 1.58899 3.44066C1.71999 3.10417 1.87601 2.86408 2.12809 2.61166C2.38017 2.35923 2.62002 2.20298 2.95709 2.07256C3.21078 1.97362 3.59282 1.85657 4.2955 1.82463C5.0552 1.78969 5.2834 1.78271 7.20721 1.78271C9.13102 1.78271 9.35946 1.79026 10.1198 1.82463C10.8225 1.85663 11.2038 1.97454 11.4582 2.07256C11.7947 2.20298 12.0348 2.35958 12.2872 2.61166C12.5396 2.86373 12.6953 3.10417 12.8263 3.44066C12.9252 3.69435 13.0423 4.07639 13.0742 4.77907C13.1092 5.5394 13.1161 5.76697 13.1161 7.69164C13.1161 9.61631 13.1092 9.84389 13.0742 10.6042C13.0422 11.3069 12.9246 11.6888 12.8263 11.9426C12.6953 12.2791 12.5393 12.5192 12.2872 12.7711C12.0351 13.0229 11.7947 13.1792 11.4582 13.3102C11.2045 13.4091 10.8225 13.5261 10.1198 13.5581C9.36009 13.593 9.13188 13.6 7.20721 13.6C5.28254 13.6 5.05497 13.593 4.2955 13.5581ZM4.23582 0.528022C3.46857 0.562962 2.94429 0.68462 2.48643 0.862782C2.01225 1.04677 1.61084 1.2936 1.20972 1.69409C0.808591 2.09458 0.562393 2.49663 0.378407 2.9708C0.200245 3.42895 0.0785874 3.95295 0.0436469 4.7202C0.00812974 5.48866 0 5.73434 0 7.69159C0 9.64883 0.00812974 9.89451 0.0436469 10.663C0.0785874 11.4303 0.200245 11.9542 0.378407 12.4124C0.562393 12.8863 0.808649 13.2888 1.20972 13.6891C1.61078 14.0894 2.01225 14.3359 2.48643 14.5204C2.94515 14.6986 3.46857 14.8202 4.23582 14.8551C5.00469 14.8901 5.24996 14.8988 7.20721 14.8988C9.16446 14.8988 9.41014 14.8907 10.1786 14.8551C10.9459 14.8202 11.4698 14.6986 11.928 14.5204C12.4019 14.3359 12.8036 14.0896 13.2047 13.6891C13.6058 13.2886 13.8515 12.8863 14.036 12.4124C14.2142 11.9542 14.3364 11.4302 14.3708 10.663C14.4057 9.89394 14.4138 9.64883 14.4138 7.69159C14.4138 5.73434 14.4057 5.48866 14.3708 4.7202C14.3358 3.95289 14.2142 3.42866 14.036 2.9708C13.8515 2.49692 13.6052 2.09522 13.2047 1.69409C12.8042 1.29297 12.4019 1.04677 11.9286 0.862782C11.4698 0.68462 10.9459 0.562386 10.1792 0.528022C9.41072 0.493081 9.16504 0.484375 7.20779 0.484375C5.25054 0.484375 5.00469 0.492505 4.23582 0.528022Z" fill="white"/>
<path d="M4.80519 7.69159C4.80519 6.36482 5.88045 5.28899 7.20721 5.28899C8.53397 5.28899 9.60981 6.36482 9.60981 7.69159C9.60981 9.01835 8.53397 10.0942 7.20721 10.0942C5.88045 10.0942 4.80519 9.01835 4.80519 7.69159ZM3.50639 7.69159C3.50639 9.73555 5.16325 11.3924 7.20721 11.3924C9.25118 11.3924 10.908 9.73555 10.908 7.69159C10.908 5.64762 9.25118 3.99077 7.20721 3.99077C5.16325 3.99077 3.50639 5.64762 3.50639 7.69159ZM10.1897 3.84403C10.1896 4.01508 10.2403 4.18232 10.3352 4.32458C10.4302 4.46685 10.5652 4.57775 10.7232 4.64328C10.8813 4.7088 11.0551 4.726 11.2229 4.69269C11.3907 4.65939 11.5448 4.57708 11.6658 4.45617C11.7868 4.33527 11.8693 4.1812 11.9027 4.01344C11.9362 3.84569 11.9191 3.67179 11.8537 3.51373C11.7883 3.35567 11.6775 3.22055 11.5353 3.12546C11.3931 3.03037 11.2259 2.97958 11.0549 2.97951H11.0545C10.8253 2.97962 10.6054 3.07072 10.4432 3.23282C10.2811 3.39492 10.1899 3.61475 10.1897 3.84403ZM4.2955 13.5581C3.59282 13.5261 3.2109 13.409 2.95709 13.3102C2.6206 13.1792 2.38051 13.0231 2.12809 12.7711C1.87566 12.519 1.71941 12.2791 1.58899 11.9426C1.49005 11.6889 1.373 11.3069 1.34106 10.6042C1.30612 9.84452 1.29914 9.61631 1.29914 7.69164C1.29914 5.76697 1.3067 5.5394 1.34106 4.77907C1.37306 4.07639 1.49097 3.6951 1.58899 3.44066C1.71999 3.10417 1.87601 2.86408 2.12809 2.61166C2.38017 2.35923 2.62002 2.20298 2.95709 2.07256C3.21078 1.97362 3.59282 1.85657 4.2955 1.82463C5.0552 1.78969 5.2834 1.78271 7.20721 1.78271C9.13102 1.78271 9.35946 1.79026 10.1198 1.82463C10.8225 1.85663 11.2038 1.97454 11.4582 2.07256C11.7947 2.20298 12.0348 2.35958 12.2872 2.61166C12.5396 2.86373 12.6953 3.10417 12.8263 3.44066C12.9252 3.69435 13.0423 4.07639 13.0742 4.77907C13.1092 5.5394 13.1161 5.76697 13.1161 7.69164C13.1161 9.61631 13.1092 9.84389 13.0742 10.6042C13.0422 11.3069 12.9246 11.6888 12.8263 11.9426C12.6953 12.2791 12.5393 12.5192 12.2872 12.7711C12.0351 13.0229 11.7947 13.1792 11.4582 13.3102C11.2045 13.4091 10.8225 13.5261 10.1198 13.5581C9.36009 13.593 9.13188 13.6 7.20721 13.6C5.28254 13.6 5.05497 13.593 4.2955 13.5581ZM4.23582 0.528022C3.46857 0.562962 2.94429 0.68462 2.48643 0.862782C2.01225 1.04677 1.61084 1.2936 1.20972 1.69409C0.808591 2.09458 0.562393 2.49663 0.378407 2.9708C0.200245 3.42895 0.0785874 3.95295 0.0436469 4.7202C0.00812974 5.48866 0 5.73434 0 7.69159C0 9.64883 0.00812974 9.89451 0.0436469 10.663C0.0785874 11.4303 0.200245 11.9542 0.378407 12.4124C0.562393 12.8863 0.808649 13.2888 1.20972 13.6891C1.61078 14.0894 2.01225 14.3359 2.48643 14.5204C2.94515 14.6986 3.46857 14.8202 4.23582 14.8551C5.00469 14.8901 5.24996 14.8988 7.20721 14.8988C9.16446 14.8988 9.41014 14.8907 10.1786 14.8551C10.9459 14.8202 11.4698 14.6986 11.928 14.5204C12.4019 14.3359 12.8036 14.0896 13.2047 13.6891C13.6058 13.2886 13.8515 12.8863 14.036 12.4124C14.2142 11.9542 14.3364 11.4302 14.3708 10.663C14.4057 9.89394 14.4138 9.64883 14.4138 7.69159C14.4138 5.73434 14.4057 5.48866 14.3708 4.7202C14.3358 3.95289 14.2142 3.42866 14.036 2.9708C13.8515 2.49692 13.6052 2.09522 13.2047 1.69409C12.8042 1.29297 12.4019 1.04677 11.9286 0.862782C11.4698 0.68462 10.9459 0.562386 10.1792 0.528022C9.41072 0.493081 9.16504 0.484375 7.20779 0.484375C5.25054 0.484375 5.00469 0.492505 4.23582 0.528022Z" fill="white"/>
</g>
<defs>
<clipPath id="clip0_17735_9503">
<rect width="14.4144" height="14.4144" fill="white" transform="translate(0 0.484375)"/>
</clipPath>
</defs>
</svg>
