<svg width="200" height="49" viewBox="0 0 200 49" fill="none" xmlns="http://www.w3.org/2000/svg">
<path d="M199.955 10.7804H199.01V8.4095L198.065 9.97432H197.593L197.12 8.4095V10.7804H196.175V6.74984H197.12L198.065 8.9311L199.01 6.74984H199.955V10.7804ZM195.703 7.46112H194.758V10.7804H193.813V7.46112H192.868V6.74984H195.703V7.46112ZM190.506 22.398H187.671V13.2936L184.364 19.221H182.474L179.639 13.2936V22.398H176.332V6.74984H179.639L183.419 15.1904L187.671 6.74984H190.506V22.398ZM172.08 22.398H168.773L167.828 19.6478H162.631L161.686 22.398H158.379L164.048 6.74984H166.41L172.08 22.398ZM167.355 17.0397L165.465 11.3495L163.576 17.0397H167.355ZM153.654 22.398H143.26V6.74984H153.654V9.45271H146.567V13.1514H152.709V15.8542H146.567V19.6952H153.654V22.398ZM138.535 9.45271H134.755V22.398H131.448V9.45271H127.196V6.74984H138.535V9.45271ZM123.416 17.7984C123.416 21.0229 120.582 22.4929 117.747 22.5403C114.912 22.5403 113.022 21.8764 112.077 20.4539L113.967 18.5097C114.912 19.3632 115.857 19.8374 117.747 19.8374C119.637 19.8374 120.582 19.1736 120.582 17.8933C120.582 16.7078 119.637 16.1862 118.692 15.9965L116.802 15.7594C113.967 15.3801 112.55 13.9101 112.55 11.3495C112.55 9.9269 113.022 8.78885 113.967 7.88789C114.912 7.03435 116.329 6.60758 117.747 6.60758C120.109 6.60758 121.527 7.22403 122.944 8.4095L121.054 10.3537C120.109 9.64239 119.164 9.26304 117.747 9.26304C116.329 9.35787 115.385 9.87948 115.385 11.2546C115.385 12.3453 116.329 12.8669 117.274 12.9617L119.164 13.2462C121.527 13.5307 123.416 15.143 123.416 17.7984ZM99.3209 14.9533C99.3209 19.221 95.5412 22.6826 91.289 22.6826C87.0369 22.6826 83.7296 19.221 83.7296 14.9533C83.7296 10.733 87.0369 7.27145 91.289 7.27145C95.5412 7.27145 99.3209 10.733 99.3209 14.9533ZM91.289 0.632812C83.7296 0.632812 77.1152 6.98693 77.1152 14.9059L68.1384 27.7564C67.6659 27.7085 67.6659 27.6615 67.1935 27.6615C65.3036 27.6615 63.4138 28.2306 61.5239 29.1789L21.1757 12.8669C20.0891 8.03015 15.7897 4.42632 10.6871 4.42632C4.82856 4.42632 0 9.26304 0 15.1904C0 21.0703 4.82856 25.907 10.6871 25.907C12.7191 25.907 14.5613 25.3854 16.1681 24.3896L56.7998 40.7017C57.7447 45.6807 61.9969 49 67.194 49C72.391 49 77.1156 44.7323 77.5881 39.4688L91.2895 29.416C99.3213 29.416 105.936 22.9671 105.936 15.0007C105.935 7.08177 99.3209 0.632812 91.289 0.632812ZM91.289 5.37469C96.9586 5.37469 101.211 9.68981 101.211 15.0007C101.211 20.359 96.9586 24.6742 91.289 24.6742C86.0919 24.6742 81.8398 20.359 81.8398 15.0007C81.8398 9.68981 86.0919 5.37469 91.289 5.37469ZM10.6871 7.27145C13.7108 7.27145 16.3566 8.9311 17.68 11.4443L13.7581 9.87948C10.5926 8.74143 7.09637 10.3063 5.82073 13.4359C4.59233 16.613 6.00971 20.1694 9.08071 21.5445L12.3879 22.8722C11.8678 23.0145 11.3013 23.0619 10.6866 23.0619C6.34043 23.0619 2.84375 19.5529 2.84375 15.1904C2.84422 10.7804 6.34043 7.27145 10.6871 7.27145ZM67.1935 30.5067C71.4456 30.5067 74.7529 34.0631 74.7529 38.4256C74.7529 42.8356 71.4456 46.1549 67.1935 46.1549C63.8862 46.1549 61.5239 44.7323 60.1066 42.1243C61.5239 42.8356 62.4689 43.3097 63.8862 43.7839C67.1935 45.2065 70.5007 43.3097 71.9181 40.2749C72.863 37.3354 71.9181 33.3048 68.6109 32.0245L65.3036 30.6968C65.7761 30.6015 66.721 30.5067 67.1935 30.5067Z" fill="white"/>
</svg>
