<svg width="25" height="27" viewBox="0 0 25 27" fill="none" xmlns="http://www.w3.org/2000/svg">
<path d="M8.46229 11.5184V10.706C8.17969 10.6614 7.89426 10.6369 7.60817 10.6328C4.83838 10.6269 2.38622 12.418 1.55445 15.0542C0.722687 17.6905 1.70449 20.5602 3.97797 22.1387C3.14428 21.2484 2.58665 20.1363 2.3724 18.9367C2.15815 17.7371 2.29643 16.5013 2.77055 15.3784C3.24467 14.2555 4.03436 13.2935 5.0443 12.6086C6.05425 11.9237 7.24128 11.5451 8.46211 11.5185L8.46229 11.5184Z" fill="white"/>
<path d="M8.61681 20.7167C10.1654 20.7146 11.4383 19.4972 11.5062 17.9534V4.17698H14.0283C13.9769 3.88911 13.9523 3.59709 13.955 3.30469L10.5051 3.30469V17.0678C10.4478 18.6195 9.17179 19.8485 7.61579 19.851C7.1508 19.8471 6.6934 19.733 6.28125 19.5181C6.54837 19.8874 6.89917 20.1885 7.30505 20.3968C7.71094 20.605 8.16041 20.7147 8.61681 20.7167ZM18.7394 8.85117V8.08544C17.8111 8.08581 16.9035 7.81249 16.1303 7.29981C16.8081 8.08599 17.7239 8.63057 18.7394 8.85117Z" fill="white"/>
<path d="M16.129 7.29361C15.3674 6.42824 14.9476 5.31578 14.9479 4.16406H14.027C14.146 4.80083 14.3937 5.40674 14.7551 5.94481C15.1165 6.48287 15.584 6.94181 16.129 7.29361ZM7.60782 14.0653C6.96194 14.0686 6.33569 14.2872 5.82864 14.6864C5.32159 15.0857 4.96285 15.6426 4.80944 16.2687C4.65603 16.8947 4.71676 17.554 4.98198 18.1416C5.24721 18.7293 5.70169 19.2116 6.27319 19.5119C5.96073 19.0814 5.77361 18.5731 5.73251 18.0432C5.69142 17.5132 5.79794 16.9822 6.04031 16.5089C6.28268 16.0355 6.65146 15.6383 7.10592 15.361C7.56037 15.0836 8.08281 14.9371 8.6155 14.9375C8.90509 14.9413 9.19266 14.9863 9.46953 15.0711V11.5683C9.18679 11.526 8.90139 11.5038 8.6155 11.5018H8.46195V14.1651C8.18361 14.0906 7.89588 14.057 7.60782 14.0653Z" fill="white"/>
<path d="M18.737 8.84375V11.5072C17.0186 11.5039 15.3447 10.9611 13.9526 9.95574V16.9538C13.9452 20.4458 11.1062 23.2728 7.60676 23.2728C6.30707 23.2751 5.03868 22.8749 3.97656 22.1275C4.84266 23.0571 5.96922 23.7048 7.2095 23.9864C8.44978 24.268 9.74629 24.1703 10.9302 23.7061C12.114 23.242 13.1304 22.4328 13.8468 21.3841C14.5633 20.3353 14.9466 19.0956 14.9469 17.8263V10.848C16.3437 11.8468 18.0196 12.3824 19.7379 12.3795V8.95004C19.4015 8.94904 19.0661 8.91342 18.737 8.84375Z" fill="white"/>
<path d="M13.9554 16.9551V9.95697C15.3517 10.9566 17.0279 11.4924 18.7464 11.4884V8.82506C17.7312 8.61112 16.8131 8.07362 16.1307 7.29361C15.5857 6.94181 15.1182 6.48287 14.7568 5.94481C14.3954 5.40674 14.1477 4.80083 14.0287 4.16406H11.5065V17.9474C11.482 18.5473 11.2707 19.1248 10.9022 19.5994C10.5336 20.0741 10.026 20.4224 9.44992 20.5959C8.87384 20.7694 8.2579 20.7596 7.68768 20.5678C7.11747 20.3759 6.62131 20.0116 6.26815 19.5254C5.69656 19.2251 5.24198 18.7428 4.97669 18.1551C4.7114 17.5674 4.65063 16.9081 4.80405 16.282C4.95747 15.6558 5.31626 15.0989 5.82339 14.6996C6.33051 14.3004 6.95684 14.0818 7.60279 14.0786C7.89248 14.0812 8.18024 14.126 8.45691 14.2118V11.5483C7.22952 11.5691 6.0347 11.9458 5.01813 12.6324C4.00156 13.3191 3.20717 14.286 2.73182 15.4154C2.25646 16.5448 2.12068 17.7878 2.34103 18.9928C2.56138 20.1978 3.12834 21.3129 3.97278 22.2019C5.04533 22.9247 6.31552 23.2992 7.60953 23.274C11.109 23.274 13.948 20.447 13.9554 16.9551Z" fill="white"/>
</svg>
