<svg width="269" height="89" viewBox="0 0 269 89" fill="none" xmlns="http://www.w3.org/2000/svg">
<path d="M257.202 16.3947H245.404V0H219.497L207.583 16.3947H186.412L179.333 23.4211V16.3947H162.816V0H110.904V16.3947H37.8724L25.9561 0H0V56.2105L33.0351 89H66.0702V79.6316L75.5088 89H139.219V79.6316L148.658 89H179.333V79.6316L188.772 89H247.763L269 67.9211V28.1053L257.202 16.3947ZM40.114 39.8158H23.5965V44.5H40.114V63.2368H14.1579L4.7193 53.8684V4.68421H23.5965V21.0789H40.114V39.8158ZM110.904 63.2368H54.2719L44.8333 53.8684V21.0789H63.7105V44.5H68.4298V21.0789H87.307V44.5H92.0263V21.0789H110.904V63.2368ZM134.5 63.2368H115.623V21.0789H134.5V63.2368ZM134.5 16.3947H115.623V4.68421H134.5V16.3947ZM174.614 39.8158H158.096V44.5H174.614V63.2368H148.658L139.219 53.8684V4.68421H158.096V21.0789H174.614V39.8158ZM217.088 39.8158H198.211V44.5H217.088V63.2368H188.772L179.333 53.8684V30.4474L188.772 21.0789H217.088V39.8158ZM264.281 63.2368H245.404V39.8158H240.684V63.2368H221.807V4.68421H240.684V21.0789H254.842L264.281 30.4474V63.2368Z" fill="#9146FF"/>
</svg>
