<svg width="28" height="20" viewBox="0 0 28 20" fill="none" xmlns="http://www.w3.org/2000/svg">
<g clip-path="url(#clip0_17709_5632)">
<path d="M10.6348 19.3579C18.3526 19.3579 22.5732 12.942 22.5732 7.37828C22.5732 7.19607 22.5695 7.0147 22.5613 6.83407C23.3826 6.23779 24.0913 5.4995 24.6543 4.65381C23.9025 4.98921 23.0935 5.21495 22.2448 5.31673C23.1111 4.79549 23.7761 3.97088 24.0899 2.98794C23.2662 3.47824 22.3652 3.82387 21.4255 4.00994C20.6598 3.19154 19.5698 2.67969 18.3627 2.67969C16.0456 2.67969 14.1666 4.56525 14.1666 6.88948C14.1666 7.21992 14.2034 7.54123 14.2754 7.84953C10.7881 7.67345 7.69584 5.99803 5.62631 3.45047C5.25357 4.09302 5.05752 4.82328 5.05817 5.56669C5.05817 7.02746 5.7989 8.31698 6.92538 9.07142C6.25906 9.051 5.60736 8.87039 5.02508 8.5448C5.02446 8.56248 5.02446 8.5797 5.02446 8.59859C5.02446 10.6376 6.47076 12.3401 8.39068 12.7259C8.03009 12.8244 7.65801 12.8742 7.28428 12.874C7.01438 12.874 6.75134 12.8474 6.4957 12.7981C7.02988 14.471 8.57886 15.6884 10.4153 15.7224C8.97923 16.8519 7.17017 17.5247 5.20399 17.5247C4.86951 17.525 4.53531 17.5055 4.20312 17.4664C6.06011 18.6607 8.2651 19.3576 10.635 19.3576" fill="white"/>
</g>
<defs>
<clipPath id="clip0_17709_5632">
<rect width="27.577" height="18.6331" fill="white" transform="translate(0.0976562 0.726562)"/>
</clipPath>
</defs>
</svg>
