<svg width="23" height="23" viewBox="0 0 23 23" fill="none" xmlns="http://www.w3.org/2000/svg">
<g clip-path="url(#clip0_17709_5634)">
<path d="M12.0868 18.8557L7.6524 18.7748C6.21663 18.7467 4.77728 18.8029 3.36966 18.511C1.22834 18.0749 1.07665 15.9364 0.91791 14.1427C0.699187 11.6209 0.783861 9.05338 1.19662 6.55266C1.42963 5.14949 2.34664 4.3122 3.76477 4.22109C8.55198 3.89043 13.371 3.92962 18.1476 4.08388C18.6521 4.09803 19.16 4.17532 19.6575 4.2633C22.1129 4.69241 22.1728 7.11574 22.3319 9.15572C22.4907 11.2168 22.4236 13.2884 22.1203 15.3354C21.8768 17.0302 21.4111 18.4515 19.4458 18.5887C16.9833 18.7682 14.5774 18.9126 12.108 18.8666C12.1081 18.8557 12.0939 18.8557 12.0868 18.8557ZM9.47982 14.5648C11.3355 13.5025 13.1558 12.458 15.0008 11.4029C13.1417 10.3406 11.3249 9.29606 9.47982 8.24093V14.5648Z" fill="white"/>
</g>
<defs>
<clipPath id="clip0_17709_5634">
<rect width="21.7321" height="22.3358" fill="white" transform="translate(0.800781 0.242188)"/>
</clipPath>
</defs>
</svg>
